<svg class="main-svg" xmlns="http://www.w3.org/2000/svg" xmlns:xlink="http://www.w3.org/1999/xlink" width="700" height="700" style="" viewBox="0 0 700 700"><rect x="0" y="0" width="700" height="700" style="fill: rgb(255, 255, 255); fill-opacity: 1;"/><defs id="defs-b54790"><g class="clips"><clipPath id="clipb54790xyplot" class="plotclip"><rect width="472.82000000000005" height="115.55555555555554"/></clipPath><clipPath id="clipb54790xy2plot" class="plotclip"><rect width="472.82000000000005" height="115.55555555555554"/></clipPath><clipPath id="clipb54790x2y3plot" class="plotclip"><rect width="186.10999999999999" height="115.55555555555557"/></clipPath><clipPath id="clipb54790x3y4plot" class="plotclip"><rect width="186.10999999999999" height="115.55555555555557"/></clipPath><clipPath id="clipb54790x4y5plot" class="plotclip"><rect width="186.10999999999999" height="115.55555555555556"/></clipPath><clipPath id="clipb54790x5y6plot" class="plotclip"><rect width="186.10999999999999" height="115.55555555555556"/></clipPath><clipPath class="axesclip" id="clipb54790x"><rect x="80" y="0" width="472.82000000000005" height="700"/></clipPath><clipPath class="axesclip" id="clipb54790y"><rect x="0" y="100" width="700" height="115.55555555555554"/></clipPath><clipPath class="axesclip" id="clipb54790xy"><rect x="80" y="100" width="472.82000000000005" height="115.55555555555554"/></clipPath><clipPath class="axesclip" id="clipb54790y2"><rect x="0" y="100" width="700" height="115.55555555555554"/></clipPath><clipPath class="axesclip" id="clipb54790xy2"><rect x="80" y="100" width="472.82000000000005" height="115.55555555555554"/></clipPath><clipPath class="axesclip" id="clipb54790y3"><rect x="0" y="302.2222222222222" width="700" height="115.55555555555557"/></clipPath><clipPath class="axesclip" id="clipb54790xy3"><rect x="80" y="302.2222222222222" width="472.82000000000005" height="115.55555555555557"/></clipPath><clipPath class="axesclip" id="clipb54790y4"><rect x="0" y="302.2222222222222" width="700" height="115.55555555555557"/></clipPath><clipPath class="axesclip" id="clipb54790xy4"><rect x="80" y="302.2222222222222" width="472.82000000000005" height="115.55555555555557"/></clipPath><clipPath class="axesclip" id="clipb54790y5"><rect x="0" y="504.44444444444446" width="700" height="115.55555555555556"/></clipPath><clipPath class="axesclip" id="clipb54790xy5"><rect x="80" y="504.44444444444446" width="472.82000000000005" height="115.55555555555556"/></clipPath><clipPath class="axesclip" id="clipb54790y6"><rect x="0" y="504.44444444444446" width="700" height="115.55555555555556"/></clipPath><clipPath class="axesclip" id="clipb54790xy6"><rect x="80" y="504.44444444444446" width="472.82000000000005" height="115.55555555555556"/></clipPath><clipPath class="axesclip" id="clipb54790x2"><rect x="80" y="0" width="186.10999999999999" height="700"/></clipPath><clipPath class="axesclip" id="clipb54790x2y"><rect x="80" y="100" width="186.10999999999999" height="115.55555555555554"/></clipPath><clipPath class="axesclip" id="clipb54790x2y2"><rect x="80" y="100" width="186.10999999999999" height="115.55555555555554"/></clipPath><clipPath class="axesclip" id="clipb54790x2y3"><rect x="80" y="302.2222222222222" width="186.10999999999999" height="115.55555555555557"/></clipPath><clipPath class="axesclip" id="clipb54790x2y4"><rect x="80" y="302.2222222222222" width="186.10999999999999" height="115.55555555555557"/></clipPath><clipPath class="axesclip" id="clipb54790x2y5"><rect x="80" y="504.44444444444446" width="186.10999999999999" height="115.55555555555556"/></clipPath><clipPath class="axesclip" id="clipb54790x2y6"><rect x="80" y="504.44444444444446" width="186.10999999999999" height="115.55555555555556"/></clipPath><clipPath class="axesclip" id="clipb54790x3"><rect x="366.71000000000004" y="0" width="186.10999999999999" height="700"/></clipPath><clipPath class="axesclip" id="clipb54790x3y"><rect x="366.71000000000004" y="100" width="186.10999999999999" height="115.55555555555554"/></clipPath><clipPath class="axesclip" id="clipb54790x3y2"><rect x="366.71000000000004" y="100" width="186.10999999999999" height="115.55555555555554"/></clipPath><clipPath class="axesclip" id="clipb54790x3y3"><rect x="366.71000000000004" y="302.2222222222222" width="186.10999999999999" height="115.55555555555557"/></clipPath><clipPath class="axesclip" id="clipb54790x3y4"><rect x="366.71000000000004" y="302.2222222222222" width="186.10999999999999" height="115.55555555555557"/></clipPath><clipPath class="axesclip" id="clipb54790x3y5"><rect x="366.71000000000004" y="504.44444444444446" width="186.10999999999999" height="115.55555555555556"/></clipPath><clipPath class="axesclip" id="clipb54790x3y6"><rect x="366.71000000000004" y="504.44444444444446" width="186.10999999999999" height="115.55555555555556"/></clipPath><clipPath class="axesclip" id="clipb54790x4"><rect x="80" y="0" width="186.10999999999999" height="700"/></clipPath><clipPath class="axesclip" id="clipb54790x4y"><rect x="80" y="100" width="186.10999999999999" height="115.55555555555554"/></clipPath><clipPath class="axesclip" id="clipb54790x4y2"><rect x="80" y="100" width="186.10999999999999" height="115.55555555555554"/></clipPath><clipPath class="axesclip" id="clipb54790x4y3"><rect x="80" y="302.2222222222222" width="186.10999999999999" height="115.55555555555557"/></clipPath><clipPath class="axesclip" id="clipb54790x4y4"><rect x="80" y="302.2222222222222" width="186.10999999999999" height="115.55555555555557"/></clipPath><clipPath class="axesclip" id="clipb54790x4y5"><rect x="80" y="504.44444444444446" width="186.10999999999999" height="115.55555555555556"/></clipPath><clipPath class="axesclip" id="clipb54790x4y6"><rect x="80" y="504.44444444444446" width="186.10999999999999" height="115.55555555555556"/></clipPath><clipPath class="axesclip" id="clipb54790x5"><rect x="366.71000000000004" y="0" width="186.10999999999999" height="700"/></clipPath><clipPath class="axesclip" id="clipb54790x5y"><rect x="366.71000000000004" y="100" width="186.10999999999999" height="115.55555555555554"/></clipPath><clipPath class="axesclip" id="clipb54790x5y2"><rect x="366.71000000000004" y="100" width="186.10999999999999" height="115.55555555555554"/></clipPath><clipPath class="axesclip" id="clipb54790x5y3"><rect x="366.71000000000004" y="302.2222222222222" width="186.10999999999999" height="115.55555555555557"/></clipPath><clipPath class="axesclip" id="clipb54790x5y4"><rect x="366.71000000000004" y="302.2222222222222" width="186.10999999999999" height="115.55555555555557"/></clipPath><clipPath class="axesclip" id="clipb54790x5y5"><rect x="366.71000000000004" y="504.44444444444446" width="186.10999999999999" height="115.55555555555556"/></clipPath><clipPath class="axesclip" id="clipb54790x5y6"><rect x="366.71000000000004" y="504.44444444444446" width="186.10999999999999" height="115.55555555555556"/></clipPath></g><g class="gradients"/><g class="patterns"/></defs><g class="bglayer"/><g class="layer-below"><g class="imagelayer"/><g class="shapelayer"/></g><g class="cartesianlayer"><g class="subplot xy"><g class="layer-subplot"><g class="shapelayer"/><g class="imagelayer"/></g><g class="gridlayer"><g class="x"/><g class="y"/><g class="y2"/></g><g class="zerolinelayer"><path class="yzl zl crisp" transform="translate(0,215.56)" d="M80,0h472.82000000000005" style="stroke: rgb(235, 240, 248); stroke-opacity: 1; stroke-width: 2px;"/></g><path class="xlines-below"/><path class="ylines-below"/><g class="overlines-below"><path class="xy2-x"/><path class="xy2-y"/></g><g class="xaxislayer-below"/><g class="yaxislayer-below"/><g class="overaxes-below"><g class="xy2-x"/><g class="xy2-y"/></g><g class="plot" transform="translate(80,100)" clip-path="url(#clipb54790xyplot)"><g class="barlayer mlayer"><g class="trace bars" style="opacity: 1;"><g class="points"><g class="point"><path d="M2.06,115.56V16.13H18.5V115.56Z" style="vector-effect: non-scaling-stroke; opacity: 1; stroke-width: 0.5px; fill: rgb(189, 219, 255); fill-opacity: 1; stroke: rgb(255, 255, 255); stroke-opacity: 1;"/></g><g class="point"><path d="M22.61,115.56V28.72H39.06V115.56Z" style="vector-effect: non-scaling-stroke; opacity: 1; stroke-width: 0.5px; fill: rgb(189, 219, 255); fill-opacity: 1; stroke: rgb(255, 255, 255); stroke-opacity: 1;"/></g><g class="point"><path d="M43.17,115.56V20.52H59.62V115.56Z" style="vector-effect: non-scaling-stroke; opacity: 1; stroke-width: 0.5px; fill: rgb(189, 219, 255); fill-opacity: 1; stroke: rgb(255, 255, 255); stroke-opacity: 1;"/></g><g class="point"><path d="M63.73,115.56V20.52H80.17V115.56Z" style="vector-effect: non-scaling-stroke; opacity: 1; stroke-width: 0.5px; fill: rgb(189, 219, 255); fill-opacity: 1; stroke: rgb(255, 255, 255); stroke-opacity: 1;"/></g><g class="point"><path d="M84.29,115.56V16.81H100.73V115.56Z" style="vector-effect: non-scaling-stroke; opacity: 1; stroke-width: 0.5px; fill: rgb(189, 219, 255); fill-opacity: 1; stroke: rgb(255, 255, 255); stroke-opacity: 1;"/></g><g class="point"><path d="M104.84,115.56V22.16H121.29V115.56Z" style="vector-effect: non-scaling-stroke; opacity: 1; stroke-width: 0.5px; fill: rgb(189, 219, 255); fill-opacity: 1; stroke: rgb(255, 255, 255); stroke-opacity: 1;"/></g><g class="point"><path d="M125.4,115.56V18.89H141.85V115.56Z" style="vector-effect: non-scaling-stroke; opacity: 1; stroke-width: 0.5px; fill: rgb(189, 219, 255); fill-opacity: 1; stroke: rgb(255, 255, 255); stroke-opacity: 1;"/></g><g class="point"><path d="M145.96,115.56V12.33H162.4V115.56Z" style="vector-effect: non-scaling-stroke; opacity: 1; stroke-width: 0.5px; fill: rgb(189, 219, 255); fill-opacity: 1; stroke: rgb(255, 255, 255); stroke-opacity: 1;"/></g><g class="point"><path d="M166.51,115.56V20.52H182.96V115.56Z" style="vector-effect: non-scaling-stroke; opacity: 1; stroke-width: 0.5px; fill: rgb(189, 219, 255); fill-opacity: 1; stroke: rgb(255, 255, 255); stroke-opacity: 1;"/></g><g class="point"><path d="M187.07,115.56V24.91H203.52V115.56Z" style="vector-effect: non-scaling-stroke; opacity: 1; stroke-width: 0.5px; fill: rgb(189, 219, 255); fill-opacity: 1; stroke: rgb(255, 255, 255); stroke-opacity: 1;"/></g><g class="point"><path d="M207.63,115.56V27.08H224.08V115.56Z" style="vector-effect: non-scaling-stroke; opacity: 1; stroke-width: 0.5px; fill: rgb(189, 219, 255); fill-opacity: 1; stroke: rgb(255, 255, 255); stroke-opacity: 1;"/></g><g class="point"><path d="M228.19,115.56V33.63H244.63V115.56Z" style="vector-effect: non-scaling-stroke; opacity: 1; stroke-width: 0.5px; fill: rgb(189, 219, 255); fill-opacity: 1; stroke: rgb(255, 255, 255); stroke-opacity: 1;"/></g><g class="point"><path d="M248.74,115.56V15.61H265.19V115.56Z" style="vector-effect: non-scaling-stroke; opacity: 1; stroke-width: 0.5px; fill: rgb(189, 219, 255); fill-opacity: 1; stroke: rgb(255, 255, 255); stroke-opacity: 1;"/></g><g class="point"><path d="M269.3,115.56V13.77H285.75V115.56Z" style="vector-effect: non-scaling-stroke; opacity: 1; stroke-width: 0.5px; fill: rgb(189, 219, 255); fill-opacity: 1; stroke: rgb(255, 255, 255); stroke-opacity: 1;"/></g><g class="point"><path d="M289.86,115.56V20.52H306.31V115.56Z" style="vector-effect: non-scaling-stroke; opacity: 1; stroke-width: 0.5px; fill: rgb(189, 219, 255); fill-opacity: 1; stroke: rgb(255, 255, 255); stroke-opacity: 1;"/></g><g class="point"><path d="M310.42,115.56V13.97H326.86V115.56Z" style="vector-effect: non-scaling-stroke; opacity: 1; stroke-width: 0.5px; fill: rgb(189, 219, 255); fill-opacity: 1; stroke: rgb(255, 255, 255); stroke-opacity: 1;"/></g><g class="point"><path d="M330.97,115.56V25.44H347.42V115.56Z" style="vector-effect: non-scaling-stroke; opacity: 1; stroke-width: 0.5px; fill: rgb(189, 219, 255); fill-opacity: 1; stroke: rgb(255, 255, 255); stroke-opacity: 1;"/></g><g class="point"><path d="M351.53,115.56V5.78H367.98V115.56Z" style="vector-effect: non-scaling-stroke; opacity: 1; stroke-width: 0.5px; fill: rgb(189, 219, 255); fill-opacity: 1; stroke: rgb(255, 255, 255); stroke-opacity: 1;"/></g><g class="point"><path d="M372.09,115.56V15.61H388.53V115.56Z" style="vector-effect: non-scaling-stroke; opacity: 1; stroke-width: 0.5px; fill: rgb(189, 219, 255); fill-opacity: 1; stroke: rgb(255, 255, 255); stroke-opacity: 1;"/></g><g class="point"><path d="M392.65,115.56V38.55H409.09V115.56Z" style="vector-effect: non-scaling-stroke; opacity: 1; stroke-width: 0.5px; fill: rgb(189, 219, 255); fill-opacity: 1; stroke: rgb(255, 255, 255); stroke-opacity: 1;"/></g><g class="point"><path d="M413.2,115.56V36.91H429.65V115.56Z" style="vector-effect: non-scaling-stroke; opacity: 1; stroke-width: 0.5px; fill: rgb(189, 219, 255); fill-opacity: 1; stroke: rgb(255, 255, 255); stroke-opacity: 1;"/></g><g class="point"><path d="M433.76,115.56V55H450.21V115.56Z" style="vector-effect: non-scaling-stroke; opacity: 1; stroke-width: 0.5px; fill: rgb(189, 219, 255); fill-opacity: 1; stroke: rgb(255, 255, 255); stroke-opacity: 1;"/></g><g class="point"><path d="M454.32,115.56V53.98H470.76V115.56Z" style="vector-effect: non-scaling-stroke; opacity: 1; stroke-width: 0.5px; fill: rgb(189, 219, 255); fill-opacity: 1; stroke: rgb(255, 255, 255); stroke-opacity: 1;"/></g></g></g></g></g><g class="overplot"><g class="xy2" transform="translate(80,100)" clip-path="url(#clipb54790xy2plot)"><g class="scatterlayer mlayer"><g class="trace scatter trace87ee9b" style="stroke-miterlimit: 2; opacity: 1;"><g class="fills"/><g class="errorbars"/><g class="lines"><path class="js-line" d="M10.28,92.09Q24.13,88.9 30.84,89.97C37.84,91.08 44.6,99.35 51.39,99.09C58.31,98.83 64.92,90.72 71.95,88.04C78.64,85.48 86.29,80.89 92.51,83.09C100.37,85.86 106.33,109.94 113.07,109.78C120.04,109.61 125.59,85.78 133.62,80.29C139.78,76.08 147.33,75.28 154.18,75.33C161.04,75.38 167.88,80.56 174.74,80.64C181.58,80.72 188.45,77.42 195.3,75.83C202.15,74.24 209.26,73.99 215.85,71.1C223.01,67.96 229.2,59.16 236.41,57.03C242.97,55.1 250.58,54.95 256.97,57.58C264.45,60.65 270.07,73.19 277.52,76.84C283.93,79.98 291.22,79.99 298.08,80.1C304.93,80.21 311.77,77.95 318.64,77.49C325.48,77.03 332.98,74.37 339.2,77.34C347.07,81.1 352.99,103.31 359.75,103.17C366.7,103.03 372.31,79.74 380.31,75.04C386.48,71.42 394.72,76.2 400.87,72.51C408.95,67.66 414.08,51.53 421.43,43.23C427.89,35.94 434.54,27.67 441.98,24.74Q448.4,22.21 462.54,24.36" style="vector-effect: non-scaling-stroke; fill: none; stroke: rgb(134, 138, 145); stroke-opacity: 1; stroke-width: 2px; opacity: 1; stroke-dasharray: 9px, 9px;"/></g><g class="points"/><g class="text"/></g><g class="trace scatter trace11249b" style="stroke-miterlimit: 2; opacity: 1;"><g class="fills"/><g class="errorbars"/><g class="lines"><path class="js-line" d="M10.28,13.21Q24.26,25.34 30.84,24.56C38.01,23.71 44.23,6.59 51.39,5.78C57.98,5.04 64.86,16.06 71.95,17.45C78.59,18.75 86.18,12.5 92.51,14.75C100.12,17.46 106.27,36.66 113.07,36.56C119.98,36.45 126.07,15.25 133.62,13.37C139.98,11.78 147.24,20.38 154.18,21.03C160.95,21.67 168.56,15.02 174.74,17.52C182.72,20.74 187.29,41.52 195.3,45.52C201.46,48.6 209.77,48.66 215.85,45.3C224.12,40.73 228.21,19.09 236.41,13.34C242.52,9.06 250.29,7.73 256.97,8.65C264.01,9.61 271.2,14.35 277.52,19.78C285.15,26.34 290.51,45.51 298.08,46.99C304.43,48.23 311.61,35.47 318.64,34.72C325.33,34 332.33,41.56 339.2,41.65C346.04,41.74 352.96,37.75 359.75,35.3C366.66,32.81 373.89,25.43 380.31,26.79C387.75,28.37 393.82,48.03 400.87,48.43C407.55,48.81 414.06,33.93 421.43,31.2C427.88,28.81 435.47,28.86 441.98,30.97Q449.25,33.33 462.54,46.22" style="vector-effect: non-scaling-stroke; fill: none; stroke: rgb(31, 133, 255); stroke-opacity: 1; stroke-width: 2.5px; opacity: 1;"/></g><g class="points"/><g class="text"/></g></g></g></g><path class="xlines-above crisp" d="M0,0" style="fill: none;"/><path class="ylines-above crisp" d="M0,0" style="fill: none;"/><g class="overlines-above"><path class="xy2-x crisp" d="M0,0" style="fill: none;"/><path class="xy2-y crisp" d="M0,0" style="fill: none;"/></g><g class="xaxislayer-above"><g class="xtick"><text text-anchor="middle" x="0" y="226.55555555555554" transform="translate(131.39,0)" style="font-family: helvetica, verdana, arial, sans-serif; font-size: 10px; fill: rgb(42, 63, 95); fill-opacity: 1; white-space: pre; opacity: 1;">2000</text></g><g class="xtick"><text text-anchor="middle" x="0" y="226.55555555555554" style="font-family: helvetica, verdana, arial, sans-serif; font-size: 10px; fill: rgb(42, 63, 95); fill-opacity: 1; white-space: pre; opacity: 1;" transform="translate(234.18,0)">2005</text></g><g class="xtick"><text text-anchor="middle" x="0" y="226.55555555555554" style="font-family: helvetica, verdana, arial, sans-serif; font-size: 10px; fill: rgb(42, 63, 95); fill-opacity: 1; white-space: pre; opacity: 1;" transform="translate(336.97,0)">2010</text></g><g class="xtick"><text text-anchor="middle" x="0" y="226.55555555555554" style="font-family: helvetica, verdana, arial, sans-serif; font-size: 10px; fill: rgb(42, 63, 95); fill-opacity: 1; white-space: pre; opacity: 1;" transform="translate(439.75,0)">2015</text></g><g class="xtick"><text text-anchor="middle" x="0" y="226.55555555555554" style="font-family: helvetica, verdana, arial, sans-serif; font-size: 10px; fill: rgb(42, 63, 95); fill-opacity: 1; white-space: pre; opacity: 1;" transform="translate(542.54,0)">2020</text></g></g><g class="yaxislayer-above"><g class="ytick"><text text-anchor="start" x="553.82" y="3.5" transform="translate(0,215.56)" style="font-family: helvetica, verdana, arial, sans-serif; font-size: 10px; fill: rgb(42, 63, 95); fill-opacity: 1; white-space: pre; opacity: 1;">0.00</text></g><g class="ytick"><text text-anchor="start" x="553.82" y="3.5" style="font-family: helvetica, verdana, arial, sans-serif; font-size: 10px; fill: rgb(42, 63, 95); fill-opacity: 1; white-space: pre; opacity: 1;" transform="translate(0,188.68)">0.20</text></g><g class="ytick"><text text-anchor="start" x="553.82" y="3.5" style="font-family: helvetica, verdana, arial, sans-serif; font-size: 10px; fill: rgb(42, 63, 95); fill-opacity: 1; white-space: pre; opacity: 1;" transform="translate(0,161.81)">0.40</text></g><g class="ytick"><text text-anchor="start" x="553.82" y="3.5" style="font-family: helvetica, verdana, arial, sans-serif; font-size: 10px; fill: rgb(42, 63, 95); fill-opacity: 1; white-space: pre; opacity: 1;" transform="translate(0,134.94)">0.60</text></g><g class="ytick"><text text-anchor="start" x="553.82" y="3.5" style="font-family: helvetica, verdana, arial, sans-serif; font-size: 10px; fill: rgb(42, 63, 95); fill-opacity: 1; white-space: pre; opacity: 1;" transform="translate(0,108.07)">0.80</text></g></g><g class="overaxes-above"><g class="xy2-x"/><g class="xy2-y"><g class="y2tick"><text text-anchor="end" x="79" y="3.5" transform="translate(0,210.97)" style="font-family: helvetica, verdana, arial, sans-serif; font-size: 10px; fill: rgb(42, 63, 95); fill-opacity: 1; white-space: pre; opacity: 1;">48%</text></g><g class="y2tick"><text text-anchor="end" x="79" y="3.5" style="font-family: helvetica, verdana, arial, sans-serif; font-size: 10px; fill: rgb(42, 63, 95); fill-opacity: 1; white-space: pre; opacity: 1;" transform="translate(0,187.42000000000002)">49%</text></g><g class="y2tick"><text text-anchor="end" x="79" y="3.5" style="font-family: helvetica, verdana, arial, sans-serif; font-size: 10px; fill: rgb(42, 63, 95); fill-opacity: 1; white-space: pre; opacity: 1;" transform="translate(0,163.87)">50%</text></g><g class="y2tick"><text text-anchor="end" x="79" y="3.5" style="font-family: helvetica, verdana, arial, sans-serif; font-size: 10px; fill: rgb(42, 63, 95); fill-opacity: 1; white-space: pre; opacity: 1;" transform="translate(0,140.32)">51%</text></g><g class="y2tick"><text text-anchor="end" x="79" y="3.5" style="font-family: helvetica, verdana, arial, sans-serif; font-size: 10px; fill: rgb(42, 63, 95); fill-opacity: 1; white-space: pre; opacity: 1;" transform="translate(0,116.77)">52%</text></g></g></g></g><g class="subplot x2y3"><g class="layer-subplot"><g class="shapelayer"/><g class="imagelayer"/></g><g class="gridlayer"><g class="x2"/><g class="y3"><path class="y3grid crisp" transform="translate(0,388.0922222222222)" d="M80,0h186.10999999999999" style="stroke: rgb(235, 240, 248); stroke-opacity: 1; stroke-width: 1px;"/><path class="y3grid crisp" transform="translate(0,344.5322222222222)" d="M80,0h186.10999999999999" style="stroke: rgb(235, 240, 248); stroke-opacity: 1; stroke-width: 1px;"/></g></g><g class="zerolinelayer"/><path class="xlines-below"/><path class="ylines-below"/><g class="overlines-below"/><g class="xaxislayer-below"/><g class="yaxislayer-below"/><g class="overaxes-below"/><g class="plot" transform="translate(80,302.2222222222222)" clip-path="url(#clipb54790x2y3plot)"><g class="scatterlayer mlayer"><g class="trace scatter tracef240a2" style="stroke-miterlimit: 2; opacity: 1;"><g class="fills"/><g class="errorbars"/><g class="lines"><path class="js-line" d="M0,109.78Q4.61,85.8 8.46,84.58C10.88,83.81 14.16,90.9 16.92,90.76C19.8,90.61 22.32,84.11 25.38,83.14C28.02,82.3 31.38,82.45 33.84,84.15C37.44,86.63 39.48,100.34 42.3,100.34C45.12,100.34 47.3,87.61 50.76,84.23C53.25,81.8 56.66,82.27 59.22,80.04C62.45,77.22 64.53,70.72 67.68,67.59C70.27,65.02 73.41,64.12 76.14,61.94C79.06,59.61 81.58,54.51 84.6,53.92C87.26,53.4 90.36,57.64 93.06,57.22C96.02,56.76 98.51,51.13 101.51,50.38C104.18,49.71 107.33,50.67 109.97,52.03C113.04,53.61 115.37,59.16 118.43,60.02C121.07,60.76 124.08,58.91 126.89,58.24C129.72,57.56 132.66,55.41 135.35,55.96C138.33,56.56 141.22,63.02 143.81,62.57C146.96,62.02 149.44,53.58 152.27,49.13C155.08,44.71 158.06,40.8 160.73,35.95C163.75,30.46 166.11,23.04 169.19,17.73C171.82,13.19 174.34,7.19 177.65,5.78Q180.18,4.7 186.11,7.06" style="vector-effect: non-scaling-stroke; fill: none; stroke: rgb(134, 138, 145); stroke-opacity: 1; stroke-width: 2px; opacity: 1; stroke-dasharray: 9px, 9px;"/></g><g class="points"/><g class="text"/></g><g class="trace scatter trace6e8b37" style="stroke-miterlimit: 2; opacity: 1;"><g class="fills"/><g class="errorbars"/><g class="lines"><path class="js-line" d="M0,60.6Q5.64,55.63 8.46,53.15C11.28,50.67 13.93,46.24 16.92,45.72C19.61,45.26 22.56,49.11 25.38,49.09C28.2,49.07 31.41,44.6 33.84,45.6C37.58,47.13 39.37,65.37 42.3,65.47C45.02,65.56 47.99,54.54 50.76,48.86C53.63,42.98 55.82,35.09 59.22,30.78C61.72,27.61 65.12,23.57 67.68,24.07C70.92,24.7 73.01,38.67 76.14,39.1C78.75,39.46 81.5,32.17 84.6,30.65C87.22,29.36 90.5,30.99 93.06,29.56C96.28,27.76 98.3,21.04 101.51,19.12C104.08,17.58 107.15,18.09 109.97,17.52C112.79,16.95 115.71,16.83 118.43,15.69C121.37,14.45 124.39,9.44 126.89,10.11C130.31,11.03 132.04,26.45 135.35,27.12C137.88,27.63 140.78,20.68 143.81,19.82C146.47,19.07 149.79,19.46 152.27,21.18C155.77,23.61 158.14,36.26 160.73,36.03C163.88,35.75 165.15,14.29 169.19,12.27C171.58,11.07 175.11,13.02 177.65,14.88Q180.94,17.29 186.11,27.1" style="vector-effect: non-scaling-stroke; fill: none; stroke: rgb(31, 133, 255); stroke-opacity: 1; stroke-width: 2px; opacity: 1;"/></g><g class="points"/><g class="text"/></g></g></g><g class="overplot"/><path class="xlines-above crisp" d="M0,0" style="fill: none;"/><path class="ylines-above crisp" d="M0,0" style="fill: none;"/><g class="overlines-above"/><g class="xaxislayer-above"><g class="x2tick"><text text-anchor="middle" x="0" y="428.7777777777777" transform="translate(96.92,0)" style="font-family: helvetica, verdana, arial, sans-serif; font-size: 10px; fill: rgb(42, 63, 95); fill-opacity: 1; white-space: pre; opacity: 1;">2000</text></g><g class="x2tick"><text text-anchor="middle" x="0" y="428.7777777777777" style="font-family: helvetica, verdana, arial, sans-serif; font-size: 10px; fill: rgb(42, 63, 95); fill-opacity: 1; white-space: pre; opacity: 1;" transform="translate(139.22,0)">2005</text></g><g class="x2tick"><text text-anchor="middle" x="0" y="428.7777777777777" style="font-family: helvetica, verdana, arial, sans-serif; font-size: 10px; fill: rgb(42, 63, 95); fill-opacity: 1; white-space: pre; opacity: 1;" transform="translate(181.51,0)">2010</text></g><g class="x2tick"><text text-anchor="middle" x="0" y="428.7777777777777" style="font-family: helvetica, verdana, arial, sans-serif; font-size: 10px; fill: rgb(42, 63, 95); fill-opacity: 1; white-space: pre; opacity: 1;" transform="translate(223.81,0)">2015</text></g><g class="x2tick"><text text-anchor="middle" x="0" y="428.7777777777777" style="font-family: helvetica, verdana, arial, sans-serif; font-size: 10px; fill: rgb(42, 63, 95); fill-opacity: 1; white-space: pre; opacity: 1;" transform="translate(266.11,0)">2020</text></g></g><g class="yaxislayer-above"><g class="y3tick"><text text-anchor="end" x="79" y="3.5" transform="translate(0,388.0922222222222)" style="font-family: helvetica, verdana, arial, sans-serif; font-size: 10px; fill: rgb(42, 63, 95); fill-opacity: 1; white-space: pre; opacity: 1;">45%</text></g><g class="y3tick"><text text-anchor="end" x="79" y="3.5" style="font-family: helvetica, verdana, arial, sans-serif; font-size: 10px; fill: rgb(42, 63, 95); fill-opacity: 1; white-space: pre; opacity: 1;" transform="translate(0,344.5322222222222)">50%</text></g></g><g class="overaxes-above"/></g><g class="subplot x3y4"><g class="layer-subplot"><g class="shapelayer"/><g class="imagelayer"/></g><g class="gridlayer"><g class="x3"/><g class="y4"><path class="y4grid crisp" transform="translate(0,375.3222222222222)" d="M366.71000000000004,0h186.10999999999999" style="stroke: rgb(235, 240, 248); stroke-opacity: 1; stroke-width: 1px;"/><path class="y4grid crisp" transform="translate(0,332.8422222222222)" d="M366.71000000000004,0h186.10999999999999" style="stroke: rgb(235, 240, 248); stroke-opacity: 1; stroke-width: 1px;"/></g></g><g class="zerolinelayer"/><path class="xlines-below"/><path class="ylines-below"/><g class="overlines-below"/><g class="xaxislayer-below"/><g class="yaxislayer-below"/><g class="overaxes-below"/><g class="plot" transform="translate(366.71000000000004,302.2222222222222)" clip-path="url(#clipb54790x3y4plot)"><g class="scatterlayer mlayer"><g class="trace scatter trace5ec627" style="stroke-miterlimit: 2; opacity: 1;"><g class="fills"/><g class="errorbars"/><g class="lines"><path class="js-line" d="M0,35.22Q5.92,37.78 8.46,40.36C11.76,43.72 14.21,54.99 16.92,54.87C19.87,54.74 22.18,41.68 25.38,36.75C27.95,32.79 31.14,30.6 33.84,27.01C36.8,23.07 38.96,15.17 42.3,13.97C44.82,13.06 48.37,14.32 50.76,16.63C54.81,20.55 55.72,39.96 59.22,40.64C61.7,41.12 65.2,30.55 67.68,31.03C71.16,31.7 73.37,46.7 76.14,54.79C79.01,63.18 80.94,79.68 84.6,80.52C87.05,81.09 90.33,75 93.06,71.83C95.99,68.43 98.52,63.9 101.51,60.71C104.19,57.86 107.43,56.66 109.97,53.41C113.26,49.2 115.67,36.6 118.43,36.66C121.31,36.72 123.61,54.78 126.89,55.32C129.43,55.74 132.77,50.01 135.35,46.3C138.55,41.7 140.79,29.49 143.81,29.26C146.47,29.06 149.17,38.16 152.27,41.33C154.89,44 158.39,43.78 160.73,47.53C165.72,55.51 165.1,93.55 169.19,94.31C171.58,94.76 174.21,82.73 177.65,80.45Q180.14,78.8 186.11,79.2" style="vector-effect: non-scaling-stroke; fill: none; stroke: rgb(134, 138, 145); stroke-opacity: 1; stroke-width: 2px; opacity: 1; stroke-dasharray: 9px, 9px;"/></g><g class="points"/><g class="text"/></g><g class="trace scatter trace6ea328" style="stroke-miterlimit: 2; opacity: 1;"><g class="fills"/><g class="errorbars"/><g class="lines"><path class="js-line" d="M0,17.58Q5.94,20.6 8.46,23.46C11.82,27.28 13.54,38.82 16.92,39.72C19.43,40.38 22.99,37.44 25.38,34.25C29.48,28.78 30.92,5.84 33.84,5.78C36.58,5.72 39.19,23.23 42.3,30.53C44.91,36.66 47.47,46.24 50.76,46.9C53.3,47.41 56.2,41.25 59.22,39.83C61.89,38.58 65.28,36.93 67.68,38.28C71.67,40.53 73.2,53.51 76.14,60.55C78.86,67.07 81.95,79.26 84.6,79.12C87.64,78.96 88.91,55.85 93.06,53.67C95.44,52.42 98.66,55.76 101.51,56.12C104.3,56.47 107.59,57.61 109.97,55.86C114.13,52.81 114.94,32.17 118.43,31.51C120.91,31.04 124.03,38.23 126.89,41.43C129.68,44.55 132.67,47.06 135.35,50.49C138.35,54.34 140.46,62.35 143.81,63.58C146.33,64.5 149.61,60.41 152.27,61.01C155.3,61.69 158.29,64.99 160.73,68.72C164.43,74.39 165.17,92.1 169.19,93.78C171.58,94.78 175.21,88.76 177.65,89.68Q181.36,91.08 186.11,109.78" style="vector-effect: non-scaling-stroke; fill: none; stroke: rgb(31, 133, 255); stroke-opacity: 1; stroke-width: 2px; opacity: 1;"/></g><g class="points"/><g class="text"/></g></g></g><g class="overplot"/><path class="xlines-above crisp" d="M0,0" style="fill: none;"/><path class="ylines-above crisp" d="M0,0" style="fill: none;"/><g class="overlines-above"/><g class="xaxislayer-above"><g class="x3tick"><text text-anchor="middle" x="0" y="428.7777777777777" transform="translate(383.63000000000005,0)" style="font-family: helvetica, verdana, arial, sans-serif; font-size: 10px; fill: rgb(42, 63, 95); fill-opacity: 1; white-space: pre; opacity: 1;">2000</text></g><g class="x3tick"><text text-anchor="middle" x="0" y="428.7777777777777" style="font-family: helvetica, verdana, arial, sans-serif; font-size: 10px; fill: rgb(42, 63, 95); fill-opacity: 1; white-space: pre; opacity: 1;" transform="translate(425.93000000000006,0)">2005</text></g><g class="x3tick"><text text-anchor="middle" x="0" y="428.7777777777777" style="font-family: helvetica, verdana, arial, sans-serif; font-size: 10px; fill: rgb(42, 63, 95); fill-opacity: 1; white-space: pre; opacity: 1;" transform="translate(468.22,0)">2010</text></g><g class="x3tick"><text text-anchor="middle" x="0" y="428.7777777777777" style="font-family: helvetica, verdana, arial, sans-serif; font-size: 10px; fill: rgb(42, 63, 95); fill-opacity: 1; white-space: pre; opacity: 1;" transform="translate(510.52000000000004,0)">2015</text></g><g class="x3tick"><text text-anchor="middle" x="0" y="428.7777777777777" style="font-family: helvetica, verdana, arial, sans-serif; font-size: 10px; fill: rgb(42, 63, 95); fill-opacity: 1; white-space: pre; opacity: 1;" transform="translate(552.82,0)">2020</text></g></g><g class="yaxislayer-above"><g class="y4tick"><text text-anchor="end" x="365.71000000000004" y="3.5" transform="translate(0,375.3222222222222)" style="font-family: helvetica, verdana, arial, sans-serif; font-size: 10px; fill: rgb(42, 63, 95); fill-opacity: 1; white-space: pre; opacity: 1;">12%</text></g><g class="y4tick"><text text-anchor="end" x="365.71000000000004" y="3.5" style="font-family: helvetica, verdana, arial, sans-serif; font-size: 10px; fill: rgb(42, 63, 95); fill-opacity: 1; white-space: pre; opacity: 1;" transform="translate(0,332.8422222222222)">14%</text></g></g><g class="overaxes-above"/></g><g class="subplot x4y5"><g class="layer-subplot"><g class="shapelayer"/><g class="imagelayer"/></g><g class="gridlayer"><g class="x4"/><g class="y5"><path class="y5grid crisp" transform="translate(0,613.9244444444445)" d="M80,0h186.10999999999999" style="stroke: rgb(235, 240, 248); stroke-opacity: 1; stroke-width: 1px;"/><path class="y5grid crisp" transform="translate(0,564.6644444444445)" d="M80,0h186.10999999999999" style="stroke: rgb(235, 240, 248); stroke-opacity: 1; stroke-width: 1px;"/><path class="y5grid crisp" transform="translate(0,515.4044444444445)" d="M80,0h186.10999999999999" style="stroke: rgb(235, 240, 248); stroke-opacity: 1; stroke-width: 1px;"/></g></g><g class="zerolinelayer"/><path class="xlines-below"/><path class="ylines-below"/><g class="overlines-below"/><g class="xaxislayer-below"/><g class="yaxislayer-below"/><g class="overaxes-below"/><g class="plot" transform="translate(80,504.44444444444446)" clip-path="url(#clipb54790x4y5plot)"><g class="scatterlayer mlayer"><g class="trace scatter traceac2864" style="stroke-miterlimit: 2; opacity: 1;"><g class="fills"/><g class="errorbars"/><g class="lines"><path class="js-line" d="M0,5.78Q4.18,33.68 8.46,40.53C10.83,44.33 14.41,48.13 16.92,47.57C20.29,46.82 21.93,33.76 25.38,29.65C27.87,26.68 31.47,22.78 33.84,23.65C38.11,25.21 38.42,55.33 42.3,56.23C44.71,56.79 47.76,46.76 50.76,46.39C53.44,46.06 56.66,49.56 59.22,52.33C62.47,55.85 64.84,61.98 67.68,66.73C70.48,71.42 73.09,76.64 76.14,80.63C78.79,84.1 82.01,89.93 84.6,89.56C87.77,89.11 90.23,78.54 93.06,73.06C95.87,67.61 98.58,56.89 101.51,56.76C104.23,56.64 107.05,69.91 109.97,70.05C112.7,70.18 115.74,59.02 118.43,59.2C121.41,59.4 123.84,69.54 126.89,73.72C129.54,77.34 132.78,79.26 135.35,83.1C138.56,87.89 140.88,100.71 143.81,100.83C146.53,100.94 149.22,86.49 152.27,86.18C154.92,85.91 157.83,92.78 160.73,95.71C163.48,98.48 166.15,102.55 169.19,103.35C171.84,104.05 175.22,103.43 177.65,101.46Q181.37,98.45 186.11,83.02" style="vector-effect: non-scaling-stroke; fill: none; stroke: rgb(134, 138, 145); stroke-opacity: 1; stroke-width: 2px; opacity: 1; stroke-dasharray: 9px, 9px;"/></g><g class="points"/><g class="text"/></g><g class="trace scatter trace2920fa" style="stroke-miterlimit: 2; opacity: 1;"><g class="fills"/><g class="errorbars"/><g class="lines"><path class="js-line" d="M0,7.21Q4.67,27.24 8.46,32.84C10.88,36.43 13.89,39.13 16.92,39.98C19.58,40.73 22.91,40.4 25.38,38.66C28.92,36.17 30.61,27.15 33.84,23.16C36.4,19.99 39.34,16.31 42.3,15.88C45,15.49 48.39,16.93 50.76,19.68C55.12,24.74 55.98,41.33 59.22,49.97C61.78,56.81 64.47,62.95 67.68,67.75C70.25,71.59 73.42,73.7 76.14,77.1C79.07,80.76 82.23,89.57 84.6,89.05C88.85,88.11 89.32,43.32 93.06,42.83C95.49,42.51 97.81,58.8 101.51,60.74C103.95,62.01 107.63,57.69 109.97,59.32C115.36,63.08 114.91,103.84 118.43,104.19C120.9,104.43 123.34,88.05 126.89,83.22C129.36,79.86 132.39,76.73 135.35,76.29C138.06,75.89 141.19,80.41 143.81,79.8C146.91,79.07 149.14,70.95 152.27,70.09C154.87,69.38 158.35,70.48 160.73,72.88C164.93,77.13 165.56,93.05 169.19,99.41C171.64,103.71 174.48,107.3 177.65,108.92Q180.24,110.24 186.11,109.78" style="vector-effect: non-scaling-stroke; fill: none; stroke: rgb(31, 133, 255); stroke-opacity: 1; stroke-width: 2px; opacity: 1;"/></g><g class="points"/><g class="text"/></g></g></g><g class="overplot"/><path class="xlines-above crisp" d="M0,0" style="fill: none;"/><path class="ylines-above crisp" d="M0,0" style="fill: none;"/><g class="overlines-above"/><g class="xaxislayer-above"><g class="x4tick"><text text-anchor="middle" x="0" y="631" transform="translate(96.92,0)" style="font-family: helvetica, verdana, arial, sans-serif; font-size: 10px; fill: rgb(42, 63, 95); fill-opacity: 1; white-space: pre; opacity: 1;">2000</text></g><g class="x4tick"><text text-anchor="middle" x="0" y="631" style="font-family: helvetica, verdana, arial, sans-serif; font-size: 10px; fill: rgb(42, 63, 95); fill-opacity: 1; white-space: pre; opacity: 1;" transform="translate(139.22,0)">2005</text></g><g class="x4tick"><text text-anchor="middle" x="0" y="631" style="font-family: helvetica, verdana, arial, sans-serif; font-size: 10px; fill: rgb(42, 63, 95); fill-opacity: 1; white-space: pre; opacity: 1;" transform="translate(181.51,0)">2010</text></g><g class="x4tick"><text text-anchor="middle" x="0" y="631" style="font-family: helvetica, verdana, arial, sans-serif; font-size: 10px; fill: rgb(42, 63, 95); fill-opacity: 1; white-space: pre; opacity: 1;" transform="translate(223.81,0)">2015</text></g><g class="x4tick"><text text-anchor="middle" x="0" y="631" style="font-family: helvetica, verdana, arial, sans-serif; font-size: 10px; fill: rgb(42, 63, 95); fill-opacity: 1; white-space: pre; opacity: 1;" transform="translate(266.11,0)">2020</text></g></g><g class="yaxislayer-above"><g class="y5tick"><text text-anchor="end" x="79" y="3.5" transform="translate(0,613.9244444444445)" style="font-family: helvetica, verdana, arial, sans-serif; font-size: 10px; fill: rgb(42, 63, 95); fill-opacity: 1; white-space: pre; opacity: 1;">20%</text></g><g class="y5tick"><text text-anchor="end" x="79" y="3.5" style="font-family: helvetica, verdana, arial, sans-serif; font-size: 10px; fill: rgb(42, 63, 95); fill-opacity: 1; white-space: pre; opacity: 1;" transform="translate(0,564.6644444444445)">25%</text></g><g class="y5tick"><text text-anchor="end" x="79" y="3.5" style="font-family: helvetica, verdana, arial, sans-serif; font-size: 10px; fill: rgb(42, 63, 95); fill-opacity: 1; white-space: pre; opacity: 1;" transform="translate(0,515.4044444444445)">30%</text></g></g><g class="overaxes-above"/></g><g class="subplot x5y6"><g class="layer-subplot"><g class="shapelayer"/><g class="imagelayer"/></g><g class="gridlayer"><g class="x5"/><g class="y6"><path class="y6grid crisp" transform="translate(0,594.8944444444445)" d="M366.71000000000004,0h186.10999999999999" style="stroke: rgb(235, 240, 248); stroke-opacity: 1; stroke-width: 1px;"/><path class="y6grid crisp" transform="translate(0,560.6644444444445)" d="M366.71000000000004,0h186.10999999999999" style="stroke: rgb(235, 240, 248); stroke-opacity: 1; stroke-width: 1px;"/><path class="y6grid crisp" transform="translate(0,526.4344444444445)" d="M366.71000000000004,0h186.10999999999999" style="stroke: rgb(235, 240, 248); stroke-opacity: 1; stroke-width: 1px;"/></g></g><g class="zerolinelayer"/><path class="xlines-below"/><path class="ylines-below"/><g class="overlines-below"/><g class="xaxislayer-below"/><g class="yaxislayer-below"/><g class="overaxes-below"/><g class="plot" transform="translate(366.71000000000004,504.44444444444446)" clip-path="url(#clipb54790x5y6plot)"><g class="scatterlayer mlayer"><g class="trace scatter trace15eea8" style="stroke-miterlimit: 2; opacity: 1;"><g class="fills"/><g class="errorbars"/><g class="lines"><path class="js-line" d="M0,68.07Q4.94,83.02 8.46,87.34C10.93,90.37 13.95,92.1 16.92,93.33C19.62,94.45 22.83,95.79 25.38,94.77C28.65,93.46 31.25,87.86 33.84,83.39C37,77.93 39.22,69.67 42.3,63.98C44.93,59.13 47.64,51.65 50.76,51.13C53.37,50.7 56.72,54.59 59.22,57.71C62.62,61.95 64.01,72.49 67.68,75.59C70.12,77.65 73.62,76.11 76.14,77.97C79.5,80.46 82.04,91.47 84.6,91.18C87.83,90.81 90.27,67.59 93.06,67.61C95.9,67.63 98.46,84.72 101.51,92.14C104.16,98.59 106.77,109.32 109.97,109.78C112.54,110.15 115.4,102.8 118.43,100.38C121.09,98.26 124.22,97.74 126.89,95.65C129.91,93.28 132.59,86.47 135.35,86.58C138.24,86.69 140.79,96.82 143.81,97.21C146.47,97.56 149.76,90.31 152.27,90.92C155.66,91.74 157.05,106.02 160.73,108.15C163.17,109.57 166.74,109.22 169.19,107.62C172.81,105.25 174.69,91.29 177.65,91.14Q180.36,91 186.11,104.14" style="vector-effect: non-scaling-stroke; fill: none; stroke: rgb(134, 138, 145); stroke-opacity: 1; stroke-width: 2px; opacity: 1; stroke-dasharray: 9px, 9px;"/></g><g class="points"/><g class="text"/></g><g class="trace scatter trace819c7f" style="stroke-miterlimit: 2; opacity: 1;"><g class="fills"/><g class="errorbars"/><g class="lines"><path class="js-line" d="M0,7.48Q5.69,24.56 8.46,24.51C11.34,24.46 13.91,5.97 16.92,5.78C19.59,5.61 21.94,17.38 25.38,19.63C27.87,21.26 31.43,18.92 33.84,20.79C37.73,23.81 38.61,40.19 42.3,41.45C44.74,42.29 48.32,35.74 50.76,36.58C54.46,37.86 55.91,56.95 59.22,57.47C61.75,57.87 65.21,46.91 67.68,47.39C71.24,48.08 72.97,65.92 76.14,73.47C78.73,79.63 82.07,89.93 84.6,89.66C87.93,89.31 88.59,63.71 93.06,59.17C95.42,56.77 99.13,55.42 101.51,56.67C105.7,58.88 105.74,78.91 109.97,82.77C112.35,84.94 115.91,82.95 118.43,84.68C121.77,86.98 124,97.25 126.89,97.35C129.65,97.45 132.34,86.76 135.35,86.4C138.02,86.08 141.17,93.55 143.81,93.19C146.86,92.78 149.48,81.43 152.27,81.47C155.12,81.51 157.56,90.81 160.73,93.85C163.32,96.33 166.7,99.84 169.19,99.14C172.63,98.17 174.72,82.32 177.65,82.2Q180.37,82.09 186.11,96.13" style="vector-effect: non-scaling-stroke; fill: none; stroke: rgb(31, 133, 255); stroke-opacity: 1; stroke-width: 2px; opacity: 1;"/></g><g class="points"/><g class="text"/></g></g></g><g class="overplot"/><path class="xlines-above crisp" d="M0,0" style="fill: none;"/><path class="ylines-above crisp" d="M0,0" style="fill: none;"/><g class="overlines-above"/><g class="xaxislayer-above"><g class="x5tick"><text text-anchor="middle" x="0" y="631" transform="translate(383.63000000000005,0)" style="font-family: helvetica, verdana, arial, sans-serif; font-size: 10px; fill: rgb(42, 63, 95); fill-opacity: 1; white-space: pre; opacity: 1;">2000</text></g><g class="x5tick"><text text-anchor="middle" x="0" y="631" style="font-family: helvetica, verdana, arial, sans-serif; font-size: 10px; fill: rgb(42, 63, 95); fill-opacity: 1; white-space: pre; opacity: 1;" transform="translate(425.93000000000006,0)">2005</text></g><g class="x5tick"><text text-anchor="middle" x="0" y="631" style="font-family: helvetica, verdana, arial, sans-serif; font-size: 10px; fill: rgb(42, 63, 95); fill-opacity: 1; white-space: pre; opacity: 1;" transform="translate(468.22,0)">2010</text></g><g class="x5tick"><text text-anchor="middle" x="0" y="631" style="font-family: helvetica, verdana, arial, sans-serif; font-size: 10px; fill: rgb(42, 63, 95); fill-opacity: 1; white-space: pre; opacity: 1;" transform="translate(510.52000000000004,0)">2015</text></g><g class="x5tick"><text text-anchor="middle" x="0" y="631" style="font-family: helvetica, verdana, arial, sans-serif; font-size: 10px; fill: rgb(42, 63, 95); fill-opacity: 1; white-space: pre; opacity: 1;" transform="translate(552.82,0)">2020</text></g></g><g class="yaxislayer-above"><g class="y6tick"><text text-anchor="end" x="365.71000000000004" y="3.5" transform="translate(0,594.8944444444445)" style="font-family: helvetica, verdana, arial, sans-serif; font-size: 10px; fill: rgb(42, 63, 95); fill-opacity: 1; white-space: pre; opacity: 1;">25%</text></g><g class="y6tick"><text text-anchor="end" x="365.71000000000004" y="3.5" style="font-family: helvetica, verdana, arial, sans-serif; font-size: 10px; fill: rgb(42, 63, 95); fill-opacity: 1; white-space: pre; opacity: 1;" transform="translate(0,560.6644444444445)">30%</text></g><g class="y6tick"><text text-anchor="end" x="365.71000000000004" y="3.5" style="font-family: helvetica, verdana, arial, sans-serif; font-size: 10px; fill: rgb(42, 63, 95); fill-opacity: 1; white-space: pre; opacity: 1;" transform="translate(0,526.4344444444445)">35%</text></g></g><g class="overaxes-above"/></g><g class="subplot xy2"/></g><g class="polarlayer"/><g class="ternarylayer"/><g class="geolayer"/><g class="funnelarealayer"/><g class="pielayer"/><g class="iciclelayer"/><g class="treemaplayer"/><g class="sunburstlayer"/><g class="glimages"/><defs id="topdefs-b54790"><g class="clips"/><clipPath id="legendb54790"><rect width="95" height="115" x="0" y="0"/></clipPath></defs><g class="layer-above"><g class="imagelayer"/><g class="shapelayer"/></g><g class="infolayer"><g class="legend" pointer-events="all" transform="translate(593.0600000000001,100)"><rect class="bg" shape-rendering="crispEdges" width="95" height="115" x="0" y="0" style="stroke: rgb(68, 68, 68); stroke-opacity: 1; fill: rgb(255, 255, 255); fill-opacity: 1; stroke-width: 0px;"/><g class="scrollbox" transform="" clip-path="url(#legendb54790)"><g class="groups" transform=""><g class="traces" transform="translate(0,14.5)" style="opacity: 1;"><text class="legendtext" text-anchor="start" x="5" y="4.29" style="font-family: helvetica, verdana, arial, sans-serif; font-size: 11px; fill: rgb(42, 63, 95); fill-opacity: 1; white-space: pre;"><tspan style="font-weight:bold">Index</tspan> (Left)</text><g class="layers"><g class="legendfill"/><g class="legendlines"/><g class="legendsymbols"><g class="legendpoints"/></g></g><rect class="legendtoggle" x="0" y="-9.5" width="89.515625" height="19" style="fill: rgb(0, 0, 0); fill-opacity: 0;"/></g><g class="traces" transform="translate(0,33.5)" style="opacity: 1;"><text class="legendtext" text-anchor="start" x="40" y="3.9" style="font-family: helvetica, verdana, arial, sans-serif; font-size: 10px; fill: rgb(42, 63, 95); fill-opacity: 1; white-space: pre;">Opponent</text><g class="layers" style="opacity: 1;"><g class="legendfill"/><g class="legendlines"><path class="js-line" d="M5,0h30" style="fill: none; stroke: rgb(134, 138, 145); stroke-opacity: 1; stroke-dasharray: 9px, 9px; stroke-width: 2px;"/></g><g class="legendsymbols"><g class="legendpoints"/></g></g><rect class="legendtoggle" x="0" y="-9.5" width="89.515625" height="19" style="fill: rgb(0, 0, 0); fill-opacity: 0;"/></g><g class="traces" transform="translate(0,52.5)" style="opacity: 1;"><text class="legendtext" text-anchor="start" x="40" y="3.9" style="font-family: helvetica, verdana, arial, sans-serif; font-size: 10px; fill: rgb(42, 63, 95); fill-opacity: 1; white-space: pre;">SAS</text><g class="layers" style="opacity: 1;"><g class="legendfill"/><g class="legendlines"><path class="js-line" d="M5,0h30" style="fill: none; stroke: rgb(31, 133, 255); stroke-opacity: 1; stroke-width: 2.5px;"/></g><g class="legendsymbols"><g class="legendpoints"/></g></g><rect class="legendtoggle" x="0" y="-9.5" width="89.515625" height="19" style="fill: rgb(0, 0, 0); fill-opacity: 0;"/></g></g><g class="groups" transform="translate(0,10)"><g class="traces" transform="translate(0,71.5)" style="opacity: 1;"><text class="legendtext" text-anchor="start" x="5" y="4.29" style="font-family: helvetica, verdana, arial, sans-serif; font-size: 11px; fill: rgb(42, 63, 95); fill-opacity: 1; white-space: pre;"><tspan style="font-weight:bold">Win%</tspan> (Right)</text><g class="layers"><g class="legendfill"/><g class="legendlines"/><g class="legendsymbols"><g class="legendpoints"/></g></g><rect class="legendtoggle" x="0" y="-9.5" width="89.515625" height="19" style="fill: rgb(0, 0, 0); fill-opacity: 0;"/></g><g class="traces" transform="translate(0,90.5)" style="opacity: 1;"><text class="legendtext" text-anchor="start" x="40" y="3.9" style="font-family: helvetica, verdana, arial, sans-serif; font-size: 10px; fill: rgb(42, 63, 95); fill-opacity: 1; white-space: pre;">SAS</text><g class="layers" style="opacity: 1;"><g class="legendfill"/><g class="legendlines"/><g class="legendsymbols"><g class="legendpoints"><path class="legendundefined" d="M6,6H-6V-6H6Z" transform="translate(20,0)" style="stroke-width: 0.5px; fill: rgb(189, 219, 255); fill-opacity: 1; stroke: rgb(255, 255, 255); stroke-opacity: 1;"/></g></g></g><rect class="legendtoggle" x="0" y="-9.5" width="89.515625" height="19" style="fill: rgb(0, 0, 0); fill-opacity: 0;"/></g></g></g><rect class="scrollbar" rx="20" ry="3" width="0" height="0" x="0" y="0" style="fill: rgb(128, 139, 164); fill-opacity: 1;"/></g><g class="g-gtitle"><text class="gtitle" x="35" y="50" text-anchor="start" dy="0em" style="font-family: helvetica, verdana, arial, sans-serif; font-size: 20px; fill: rgb(42, 63, 95); opacity: 1; font-weight: normal; white-space: pre;"><tspan class="line" dy="0em" x="35" y="50"><tspan style="font-weight:bold">NBA Four Factors Index &amp; Components</tspan></tspan><tspan class="line" dy="1.3em" x="35" y="50">San Antonio Spurs</tspan></text></g><g class="g-xtitle"/><g class="g-x2title"/><g class="g-x3title"/><g class="g-x4title"/><g class="g-x5title"/><g class="g-ytitle"/><g class="g-y2title"/><g class="g-y3title"/><g class="g-y4title"/><g class="g-y5title"/><g class="g-y6title"/><g class="annotation" data-index="0" style="opacity: 1;"><g class="annotation-text-g" transform="rotate(0,316.41,90)"><g class="cursor-pointer" transform="translate(250,80)"><rect class="bg" x="0.5" y="0.5" width="131" height="19" style="stroke-width: 1px; stroke: rgb(0, 0, 0); stroke-opacity: 0; fill: rgb(0, 0, 0); fill-opacity: 0;"/><text class="annotation-text" text-anchor="middle" x="66.171875" y="15" style="font-family: helvetica, verdana, arial, sans-serif; font-size: 14px; fill: rgb(42, 63, 95); fill-opacity: 1; white-space: pre;">Four Factors Index</text></g></g></g><g class="annotation" data-index="1" style="opacity: 1;"><g class="annotation-text-g" transform="rotate(0,173.055,292.2222222222222)"><g class="cursor-pointer" transform="translate(151,282)"><rect class="bg" x="0.5" y="0.5" width="44" height="19" style="stroke-width: 1px; stroke: rgb(0, 0, 0); stroke-opacity: 0; fill: rgb(0, 0, 0); fill-opacity: 0;"/><text class="annotation-text" text-anchor="middle" x="22.421875" y="15" style="font-family: helvetica, verdana, arial, sans-serif; font-size: 14px; fill: rgb(42, 63, 95); fill-opacity: 1; white-space: pre;">eFG%</text></g></g></g><g class="annotation" data-index="2" style="opacity: 1;"><g class="annotation-text-g" transform="rotate(0,459.76500000000004,292.2222222222222)"><g class="cursor-pointer" transform="translate(436,282)"><rect class="bg" x="0.5" y="0.5" width="46" height="19" style="stroke-width: 1px; stroke: rgb(0, 0, 0); stroke-opacity: 0; fill: rgb(0, 0, 0); fill-opacity: 0;"/><text class="annotation-text" text-anchor="middle" x="24.109375" y="15" style="font-family: helvetica, verdana, arial, sans-serif; font-size: 14px; fill: rgb(42, 63, 95); fill-opacity: 1; white-space: pre;">TOV%</text></g></g></g><g class="annotation" data-index="3" style="opacity: 1;"><g class="annotation-text-g" transform="rotate(0,173.055,494.44444444444446)"><g class="cursor-pointer" transform="translate(145,484)"><rect class="bg" x="0.5" y="0.5" width="56" height="19" style="stroke-width: 1px; stroke: rgb(0, 0, 0); stroke-opacity: 0; fill: rgb(0, 0, 0); fill-opacity: 0;"/><text class="annotation-text" text-anchor="middle" x="28.25" y="15" style="font-family: helvetica, verdana, arial, sans-serif; font-size: 14px; fill: rgb(42, 63, 95); fill-opacity: 1; white-space: pre;">OREB%</text></g></g></g><g class="annotation" data-index="4" style="opacity: 1;"><g class="annotation-text-g" transform="rotate(0,459.76500000000004,494.44444444444446)"><g class="cursor-pointer" transform="translate(427,484)"><rect class="bg" x="0.5" y="0.5" width="64" height="19" style="stroke-width: 1px; stroke: rgb(0, 0, 0); stroke-opacity: 0; fill: rgb(0, 0, 0); fill-opacity: 0;"/><text class="annotation-text" text-anchor="middle" x="32.703125" y="15" style="font-family: helvetica, verdana, arial, sans-serif; font-size: 14px; fill: rgb(42, 63, 95); fill-opacity: 1; white-space: pre;">FTA Rate</text></g></g></g></g></svg>