<svg class="main-svg" xmlns="http://www.w3.org/2000/svg" xmlns:xlink="http://www.w3.org/1999/xlink" width="700" height="700" style="" viewBox="0 0 700 700"><rect x="0" y="0" width="700" height="700" style="fill: rgb(255, 255, 255); fill-opacity: 1;"/><defs id="defs-f0d282"><g class="clips"><clipPath id="clipf0d282xyplot" class="plotclip"><rect width="472.82000000000005" height="115.55555555555554"/></clipPath><clipPath id="clipf0d282xy2plot" class="plotclip"><rect width="472.82000000000005" height="115.55555555555554"/></clipPath><clipPath id="clipf0d282x2y3plot" class="plotclip"><rect width="186.10999999999999" height="115.55555555555557"/></clipPath><clipPath id="clipf0d282x3y4plot" class="plotclip"><rect width="186.10999999999999" height="115.55555555555557"/></clipPath><clipPath id="clipf0d282x4y5plot" class="plotclip"><rect width="186.10999999999999" height="115.55555555555556"/></clipPath><clipPath id="clipf0d282x5y6plot" class="plotclip"><rect width="186.10999999999999" height="115.55555555555556"/></clipPath><clipPath class="axesclip" id="clipf0d282x"><rect x="80" y="0" width="472.82000000000005" height="700"/></clipPath><clipPath class="axesclip" id="clipf0d282y"><rect x="0" y="100" width="700" height="115.55555555555554"/></clipPath><clipPath class="axesclip" id="clipf0d282xy"><rect x="80" y="100" width="472.82000000000005" height="115.55555555555554"/></clipPath><clipPath class="axesclip" id="clipf0d282y2"><rect x="0" y="100" width="700" height="115.55555555555554"/></clipPath><clipPath class="axesclip" id="clipf0d282xy2"><rect x="80" y="100" width="472.82000000000005" height="115.55555555555554"/></clipPath><clipPath class="axesclip" id="clipf0d282y3"><rect x="0" y="302.2222222222222" width="700" height="115.55555555555557"/></clipPath><clipPath class="axesclip" id="clipf0d282xy3"><rect x="80" y="302.2222222222222" width="472.82000000000005" height="115.55555555555557"/></clipPath><clipPath class="axesclip" id="clipf0d282y4"><rect x="0" y="302.2222222222222" width="700" height="115.55555555555557"/></clipPath><clipPath class="axesclip" id="clipf0d282xy4"><rect x="80" y="302.2222222222222" width="472.82000000000005" height="115.55555555555557"/></clipPath><clipPath class="axesclip" id="clipf0d282y5"><rect x="0" y="504.44444444444446" width="700" height="115.55555555555556"/></clipPath><clipPath class="axesclip" id="clipf0d282xy5"><rect x="80" y="504.44444444444446" width="472.82000000000005" height="115.55555555555556"/></clipPath><clipPath class="axesclip" id="clipf0d282y6"><rect x="0" y="504.44444444444446" width="700" height="115.55555555555556"/></clipPath><clipPath class="axesclip" id="clipf0d282xy6"><rect x="80" y="504.44444444444446" width="472.82000000000005" height="115.55555555555556"/></clipPath><clipPath class="axesclip" id="clipf0d282x2"><rect x="80" y="0" width="186.10999999999999" height="700"/></clipPath><clipPath class="axesclip" id="clipf0d282x2y"><rect x="80" y="100" width="186.10999999999999" height="115.55555555555554"/></clipPath><clipPath class="axesclip" id="clipf0d282x2y2"><rect x="80" y="100" width="186.10999999999999" height="115.55555555555554"/></clipPath><clipPath class="axesclip" id="clipf0d282x2y3"><rect x="80" y="302.2222222222222" width="186.10999999999999" height="115.55555555555557"/></clipPath><clipPath class="axesclip" id="clipf0d282x2y4"><rect x="80" y="302.2222222222222" width="186.10999999999999" height="115.55555555555557"/></clipPath><clipPath class="axesclip" id="clipf0d282x2y5"><rect x="80" y="504.44444444444446" width="186.10999999999999" height="115.55555555555556"/></clipPath><clipPath class="axesclip" id="clipf0d282x2y6"><rect x="80" y="504.44444444444446" width="186.10999999999999" height="115.55555555555556"/></clipPath><clipPath class="axesclip" id="clipf0d282x3"><rect x="366.71000000000004" y="0" width="186.10999999999999" height="700"/></clipPath><clipPath class="axesclip" id="clipf0d282x3y"><rect x="366.71000000000004" y="100" width="186.10999999999999" height="115.55555555555554"/></clipPath><clipPath class="axesclip" id="clipf0d282x3y2"><rect x="366.71000000000004" y="100" width="186.10999999999999" height="115.55555555555554"/></clipPath><clipPath class="axesclip" id="clipf0d282x3y3"><rect x="366.71000000000004" y="302.2222222222222" width="186.10999999999999" height="115.55555555555557"/></clipPath><clipPath class="axesclip" id="clipf0d282x3y4"><rect x="366.71000000000004" y="302.2222222222222" width="186.10999999999999" height="115.55555555555557"/></clipPath><clipPath class="axesclip" id="clipf0d282x3y5"><rect x="366.71000000000004" y="504.44444444444446" width="186.10999999999999" height="115.55555555555556"/></clipPath><clipPath class="axesclip" id="clipf0d282x3y6"><rect x="366.71000000000004" y="504.44444444444446" width="186.10999999999999" height="115.55555555555556"/></clipPath><clipPath class="axesclip" id="clipf0d282x4"><rect x="80" y="0" width="186.10999999999999" height="700"/></clipPath><clipPath class="axesclip" id="clipf0d282x4y"><rect x="80" y="100" width="186.10999999999999" height="115.55555555555554"/></clipPath><clipPath class="axesclip" id="clipf0d282x4y2"><rect x="80" y="100" width="186.10999999999999" height="115.55555555555554"/></clipPath><clipPath class="axesclip" id="clipf0d282x4y3"><rect x="80" y="302.2222222222222" width="186.10999999999999" height="115.55555555555557"/></clipPath><clipPath class="axesclip" id="clipf0d282x4y4"><rect x="80" y="302.2222222222222" width="186.10999999999999" height="115.55555555555557"/></clipPath><clipPath class="axesclip" id="clipf0d282x4y5"><rect x="80" y="504.44444444444446" width="186.10999999999999" height="115.55555555555556"/></clipPath><clipPath class="axesclip" id="clipf0d282x4y6"><rect x="80" y="504.44444444444446" width="186.10999999999999" height="115.55555555555556"/></clipPath><clipPath class="axesclip" id="clipf0d282x5"><rect x="366.71000000000004" y="0" width="186.10999999999999" height="700"/></clipPath><clipPath class="axesclip" id="clipf0d282x5y"><rect x="366.71000000000004" y="100" width="186.10999999999999" height="115.55555555555554"/></clipPath><clipPath class="axesclip" id="clipf0d282x5y2"><rect x="366.71000000000004" y="100" width="186.10999999999999" height="115.55555555555554"/></clipPath><clipPath class="axesclip" id="clipf0d282x5y3"><rect x="366.71000000000004" y="302.2222222222222" width="186.10999999999999" height="115.55555555555557"/></clipPath><clipPath class="axesclip" id="clipf0d282x5y4"><rect x="366.71000000000004" y="302.2222222222222" width="186.10999999999999" height="115.55555555555557"/></clipPath><clipPath class="axesclip" id="clipf0d282x5y5"><rect x="366.71000000000004" y="504.44444444444446" width="186.10999999999999" height="115.55555555555556"/></clipPath><clipPath class="axesclip" id="clipf0d282x5y6"><rect x="366.71000000000004" y="504.44444444444446" width="186.10999999999999" height="115.55555555555556"/></clipPath></g><g class="gradients"/><g class="patterns"/></defs><g class="bglayer"/><g class="layer-below"><g class="imagelayer"/><g class="shapelayer"/></g><g class="cartesianlayer"><g class="subplot xy"><g class="layer-subplot"><g class="shapelayer"/><g class="imagelayer"/></g><g class="gridlayer"><g class="x"/><g class="y"><path class="ygrid crisp" transform="translate(0,188.68)" d="M80,0h472.82000000000005" style="stroke: rgb(235, 240, 248); stroke-opacity: 1; stroke-width: 1px;"/><path class="ygrid crisp" transform="translate(0,161.81)" d="M80,0h472.82000000000005" style="stroke: rgb(235, 240, 248); stroke-opacity: 1; stroke-width: 1px;"/><path class="ygrid crisp" transform="translate(0,134.94)" d="M80,0h472.82000000000005" style="stroke: rgb(235, 240, 248); stroke-opacity: 1; stroke-width: 1px;"/><path class="ygrid crisp" transform="translate(0,108.07)" d="M80,0h472.82000000000005" style="stroke: rgb(235, 240, 248); stroke-opacity: 1; stroke-width: 1px;"/></g><g class="y2"/></g><g class="zerolinelayer"><path class="yzl zl crisp" transform="translate(0,215.56)" d="M80,0h472.82000000000005" style="stroke: rgb(235, 240, 248); stroke-opacity: 1; stroke-width: 2px;"/></g><path class="xlines-below"/><path class="ylines-below"/><g class="overlines-below"><path class="xy2-x"/><path class="xy2-y"/></g><g class="xaxislayer-below"/><g class="yaxislayer-below"/><g class="overaxes-below"><g class="xy2-x"/><g class="xy2-y"/></g><g class="plot" transform="translate(80,100)" clip-path="url(#clipf0d282xyplot)"><g class="barlayer mlayer"><g class="trace bars" style="opacity: 1;"><g class="points"><g class="point"><path d="M2.25,115.56V20.52H20.26V115.56Z" style="vector-effect: non-scaling-stroke; opacity: 1; stroke-width: 0.5px; fill: rgb(189, 219, 255); fill-opacity: 1; stroke: rgb(255, 255, 255); stroke-opacity: 1;"/></g><g class="point"><path d="M24.77,115.56V20.52H42.78V115.56Z" style="vector-effect: non-scaling-stroke; opacity: 1; stroke-width: 0.5px; fill: rgb(189, 219, 255); fill-opacity: 1; stroke: rgb(255, 255, 255); stroke-opacity: 1;"/></g><g class="point"><path d="M47.28,115.56V16.81H65.29V115.56Z" style="vector-effect: non-scaling-stroke; opacity: 1; stroke-width: 0.5px; fill: rgb(189, 219, 255); fill-opacity: 1; stroke: rgb(255, 255, 255); stroke-opacity: 1;"/></g><g class="point"><path d="M69.8,115.56V22.16H87.81V115.56Z" style="vector-effect: non-scaling-stroke; opacity: 1; stroke-width: 0.5px; fill: rgb(189, 219, 255); fill-opacity: 1; stroke: rgb(255, 255, 255); stroke-opacity: 1;"/></g><g class="point"><path d="M92.31,115.56V18.89H110.32V115.56Z" style="vector-effect: non-scaling-stroke; opacity: 1; stroke-width: 0.5px; fill: rgb(189, 219, 255); fill-opacity: 1; stroke: rgb(255, 255, 255); stroke-opacity: 1;"/></g><g class="point"><path d="M114.83,115.56V12.33H132.84V115.56Z" style="vector-effect: non-scaling-stroke; opacity: 1; stroke-width: 0.5px; fill: rgb(189, 219, 255); fill-opacity: 1; stroke: rgb(255, 255, 255); stroke-opacity: 1;"/></g><g class="point"><path d="M137.34,115.56V20.52H155.36V115.56Z" style="vector-effect: non-scaling-stroke; opacity: 1; stroke-width: 0.5px; fill: rgb(189, 219, 255); fill-opacity: 1; stroke: rgb(255, 255, 255); stroke-opacity: 1;"/></g><g class="point"><path d="M159.86,115.56V24.91H177.87V115.56Z" style="vector-effect: non-scaling-stroke; opacity: 1; stroke-width: 0.5px; fill: rgb(189, 219, 255); fill-opacity: 1; stroke: rgb(255, 255, 255); stroke-opacity: 1;"/></g><g class="point"><path d="M182.37,115.56V27.08H200.39V115.56Z" style="vector-effect: non-scaling-stroke; opacity: 1; stroke-width: 0.5px; fill: rgb(189, 219, 255); fill-opacity: 1; stroke: rgb(255, 255, 255); stroke-opacity: 1;"/></g><g class="point"><path d="M204.89,115.56V33.63H222.9V115.56Z" style="vector-effect: non-scaling-stroke; opacity: 1; stroke-width: 0.5px; fill: rgb(189, 219, 255); fill-opacity: 1; stroke: rgb(255, 255, 255); stroke-opacity: 1;"/></g><g class="point"><path d="M227.4,115.56V15.61H245.42V115.56Z" style="vector-effect: non-scaling-stroke; opacity: 1; stroke-width: 0.5px; fill: rgb(189, 219, 255); fill-opacity: 1; stroke: rgb(255, 255, 255); stroke-opacity: 1;"/></g><g class="point"><path d="M249.92,115.56V13.77H267.93V115.56Z" style="vector-effect: non-scaling-stroke; opacity: 1; stroke-width: 0.5px; fill: rgb(189, 219, 255); fill-opacity: 1; stroke: rgb(255, 255, 255); stroke-opacity: 1;"/></g><g class="point"><path d="M272.43,115.56V20.52H290.45V115.56Z" style="vector-effect: non-scaling-stroke; opacity: 1; stroke-width: 0.5px; fill: rgb(189, 219, 255); fill-opacity: 1; stroke: rgb(255, 255, 255); stroke-opacity: 1;"/></g><g class="point"><path d="M294.95,115.56V13.97H312.96V115.56Z" style="vector-effect: non-scaling-stroke; opacity: 1; stroke-width: 0.5px; fill: rgb(189, 219, 255); fill-opacity: 1; stroke: rgb(255, 255, 255); stroke-opacity: 1;"/></g><g class="point"><path d="M317.46,115.56V25.44H335.48V115.56Z" style="vector-effect: non-scaling-stroke; opacity: 1; stroke-width: 0.5px; fill: rgb(189, 219, 255); fill-opacity: 1; stroke: rgb(255, 255, 255); stroke-opacity: 1;"/></g><g class="point"><path d="M339.98,115.56V5.78H357.99V115.56Z" style="vector-effect: non-scaling-stroke; opacity: 1; stroke-width: 0.5px; fill: rgb(189, 219, 255); fill-opacity: 1; stroke: rgb(255, 255, 255); stroke-opacity: 1;"/></g><g class="point"><path d="M362.5,115.56V15.61H380.51V115.56Z" style="vector-effect: non-scaling-stroke; opacity: 1; stroke-width: 0.5px; fill: rgb(189, 219, 255); fill-opacity: 1; stroke: rgb(255, 255, 255); stroke-opacity: 1;"/></g><g class="point"><path d="M385.01,115.56V38.55H403.02V115.56Z" style="vector-effect: non-scaling-stroke; opacity: 1; stroke-width: 0.5px; fill: rgb(189, 219, 255); fill-opacity: 1; stroke: rgb(255, 255, 255); stroke-opacity: 1;"/></g><g class="point"><path d="M407.53,115.56V36.91H425.54V115.56Z" style="vector-effect: non-scaling-stroke; opacity: 1; stroke-width: 0.5px; fill: rgb(189, 219, 255); fill-opacity: 1; stroke: rgb(255, 255, 255); stroke-opacity: 1;"/></g><g class="point"><path d="M430.04,115.56V55H448.05V115.56Z" style="vector-effect: non-scaling-stroke; opacity: 1; stroke-width: 0.5px; fill: rgb(189, 219, 255); fill-opacity: 1; stroke: rgb(255, 255, 255); stroke-opacity: 1;"/></g><g class="point"><path d="M452.56,115.56V53.25H470.57V115.56Z" style="vector-effect: non-scaling-stroke; opacity: 1; stroke-width: 0.5px; fill: rgb(189, 219, 255); fill-opacity: 1; stroke: rgb(255, 255, 255); stroke-opacity: 1;"/></g></g></g></g></g><g class="overplot"><g class="xy2" transform="translate(80,100)" clip-path="url(#clipf0d282xy2plot)"><g class="scatterlayer mlayer"><g class="trace scatter trace018b42" style="stroke-miterlimit: 2; opacity: 1;"><g class="fills"/><g class="errorbars"/><g class="lines"><path class="js-line" d="M11.26,99.09Q26.1,90.72 33.77,88.04C41.12,85.47 49.42,80.76 56.29,83.09C64.75,85.96 71.41,109.96 78.8,109.78C86.42,109.6 92.69,85.8 101.32,80.29C108.12,75.95 116.33,75.27 123.83,75.33C131.34,75.39 138.84,80.56 146.35,80.64C153.85,80.72 161.35,77.42 168.86,75.83C176.36,74.24 184.12,74.02 191.38,71.1C199.17,67.96 206.05,59.18 213.89,57.03C221.11,55.05 229.35,54.87 236.41,57.58C244.51,60.68 250.86,73.18 258.93,76.84C266,80.05 273.93,79.99 281.44,80.1C288.94,80.21 296.44,77.95 303.96,77.49C311.45,77.03 319.6,74.24 326.47,77.34C334.94,81.16 341.58,103.33 348.99,103.17C356.59,103.01 362.9,79.78 371.5,75.04C378.32,71.28 387.23,76.34 394.02,72.51C402.69,67.62 408.52,51.5 416.53,43.23C423.64,35.89 431,27.7 439.05,24.74Q446.13,22.14 461.56,24.36" style="vector-effect: non-scaling-stroke; fill: none; stroke: rgb(134, 138, 145); stroke-opacity: 1; stroke-width: 2px; opacity: 1; stroke-dasharray: 9px, 9px;"/></g><g class="points"/><g class="text"/></g><g class="trace scatter trace5954a9" style="stroke-miterlimit: 2; opacity: 1;"><g class="fills"/><g class="errorbars"/><g class="lines"><path class="js-line" d="M11.26,5.78Q26.04,16.05 33.77,17.45C41.08,18.78 49.3,12.39 56.29,14.75C64.51,17.52 71.35,36.67 78.8,36.56C86.36,36.44 93.14,15.34 101.32,13.37C108.33,11.68 116.24,20.37 123.83,21.03C131.26,21.68 139.52,14.88 146.35,17.52C154.92,20.84 160.25,41.45 168.86,45.52C175.67,48.74 184.65,48.83 191.38,45.3C200.24,40.65 205.1,19.12 213.89,13.34C220.64,8.91 229.06,7.71 236.41,8.65C244.09,9.63 251.96,14.27 258.93,19.78C267.19,26.32 273.23,45.41 281.44,46.99C288.43,48.34 296.29,35.49 303.96,34.72C311.31,33.98 318.95,41.56 326.47,41.65C333.96,41.74 341.54,37.75 348.99,35.3C356.55,32.81 364.42,25.34 371.5,26.79C379.56,28.44 386.32,48 394.02,48.43C401.35,48.84 408.54,33.95 416.53,31.2C423.65,28.75 431.87,28.81 439.05,30.97Q446.94,33.35 461.56,46.22" style="vector-effect: non-scaling-stroke; fill: none; stroke: rgb(31, 133, 255); stroke-opacity: 1; stroke-width: 2px; opacity: 1;"/></g><g class="points"/><g class="text"/></g></g></g></g><path class="xlines-above crisp" d="M0,0" style="fill: none;"/><path class="ylines-above crisp" d="M0,0" style="fill: none;"/><g class="overlines-above"><path class="xy2-x crisp" d="M0,0" style="fill: none;"/><path class="xy2-y crisp" d="M0,0" style="fill: none;"/></g><g class="xaxislayer-above"><g class="xtick"><text text-anchor="middle" x="0" y="226.55555555555554" transform="translate(91.26,0)" style="font-family: helvetica, verdana, arial, sans-serif; font-size: 10px; fill: rgb(42, 63, 95); fill-opacity: 1; white-space: pre; opacity: 1;">2000</text></g><g class="xtick"><text text-anchor="middle" x="0" y="226.55555555555554" style="font-family: helvetica, verdana, arial, sans-serif; font-size: 10px; fill: rgb(42, 63, 95); fill-opacity: 1; white-space: pre; opacity: 1;" transform="translate(203.82999999999998,0)">2005</text></g><g class="xtick"><text text-anchor="middle" x="0" y="226.55555555555554" style="font-family: helvetica, verdana, arial, sans-serif; font-size: 10px; fill: rgb(42, 63, 95); fill-opacity: 1; white-space: pre; opacity: 1;" transform="translate(316.40999999999997,0)">2010</text></g><g class="xtick"><text text-anchor="middle" x="0" y="226.55555555555554" style="font-family: helvetica, verdana, arial, sans-serif; font-size: 10px; fill: rgb(42, 63, 95); fill-opacity: 1; white-space: pre; opacity: 1;" transform="translate(428.99,0)">2015</text></g><g class="xtick"><text text-anchor="middle" x="0" y="226.55555555555554" style="font-family: helvetica, verdana, arial, sans-serif; font-size: 10px; fill: rgb(42, 63, 95); fill-opacity: 1; white-space: pre; opacity: 1;" transform="translate(541.56,0)">2020</text></g></g><g class="yaxislayer-above"><g class="ytick"><text text-anchor="end" x="79" y="3.5" transform="translate(0,215.56)" style="font-family: helvetica, verdana, arial, sans-serif; font-size: 10px; fill: rgb(42, 63, 95); fill-opacity: 1; white-space: pre; opacity: 1;">0%</text></g><g class="ytick"><text text-anchor="end" x="79" y="3.5" style="font-family: helvetica, verdana, arial, sans-serif; font-size: 10px; fill: rgb(42, 63, 95); fill-opacity: 1; white-space: pre; opacity: 1;" transform="translate(0,188.68)">20%</text></g><g class="ytick"><text text-anchor="end" x="79" y="3.5" style="font-family: helvetica, verdana, arial, sans-serif; font-size: 10px; fill: rgb(42, 63, 95); fill-opacity: 1; white-space: pre; opacity: 1;" transform="translate(0,161.81)">40%</text></g><g class="ytick"><text text-anchor="end" x="79" y="3.5" style="font-family: helvetica, verdana, arial, sans-serif; font-size: 10px; fill: rgb(42, 63, 95); fill-opacity: 1; white-space: pre; opacity: 1;" transform="translate(0,134.94)">60%</text></g><g class="ytick"><text text-anchor="end" x="79" y="3.5" style="font-family: helvetica, verdana, arial, sans-serif; font-size: 10px; fill: rgb(42, 63, 95); fill-opacity: 1; white-space: pre; opacity: 1;" transform="translate(0,108.07)">80%</text></g></g><g class="overaxes-above"><g class="xy2-x"/><g class="xy2-y"><g class="y2tick"><text text-anchor="start" x="553.82" y="3.5" transform="translate(0,210.97)" style="font-family: helvetica, verdana, arial, sans-serif; font-size: 10px; fill: rgb(42, 63, 95); fill-opacity: 1; white-space: pre; opacity: 1;">0.48</text></g><g class="y2tick"><text text-anchor="start" x="553.82" y="3.5" style="font-family: helvetica, verdana, arial, sans-serif; font-size: 10px; fill: rgb(42, 63, 95); fill-opacity: 1; white-space: pre; opacity: 1;" transform="translate(0,187.42000000000002)">0.49</text></g><g class="y2tick"><text text-anchor="start" x="553.82" y="3.5" style="font-family: helvetica, verdana, arial, sans-serif; font-size: 10px; fill: rgb(42, 63, 95); fill-opacity: 1; white-space: pre; opacity: 1;" transform="translate(0,163.87)">0.50</text></g><g class="y2tick"><text text-anchor="start" x="553.82" y="3.5" style="font-family: helvetica, verdana, arial, sans-serif; font-size: 10px; fill: rgb(42, 63, 95); fill-opacity: 1; white-space: pre; opacity: 1;" transform="translate(0,140.32)">0.51</text></g><g class="y2tick"><text text-anchor="start" x="553.82" y="3.5" style="font-family: helvetica, verdana, arial, sans-serif; font-size: 10px; fill: rgb(42, 63, 95); fill-opacity: 1; white-space: pre; opacity: 1;" transform="translate(0,116.77)">0.52</text></g></g></g></g><g class="subplot x2y3"><g class="layer-subplot"><g class="shapelayer"/><g class="imagelayer"/></g><g class="gridlayer"><g class="x2"/><g class="y3"><path class="y3grid crisp" transform="translate(0,396.0822222222222)" d="M80,0h186.10999999999999" style="stroke: rgb(235, 240, 248); stroke-opacity: 1; stroke-width: 1px;"/><path class="y3grid crisp" transform="translate(0,348.18222222222215)" d="M80,0h186.10999999999999" style="stroke: rgb(235, 240, 248); stroke-opacity: 1; stroke-width: 1px;"/></g></g><g class="zerolinelayer"/><path class="xlines-below"/><path class="ylines-below"/><g class="overlines-below"/><g class="xaxislayer-below"/><g class="yaxislayer-below"/><g class="overaxes-below"/><g class="plot" transform="translate(80,302.2222222222222)" clip-path="url(#clipf0d282x2y3plot)"><g class="scatterlayer mlayer"><g class="trace scatter tracecd89f6" style="stroke-miterlimit: 2; opacity: 1;"><g class="fills"/><g class="errorbars"/><g class="lines"><path class="js-line" d="M0,99.24Q5.95,91.93 9.31,90.86C12.22,89.94 15.91,90.11 18.61,91.97C22.57,94.7 24.82,109.78 27.92,109.78C31.02,109.78 33.42,95.77 37.22,92.06C39.96,89.38 43.71,89.91 46.53,87.45C50.09,84.35 52.36,77.2 55.83,73.76C58.68,70.93 62.14,69.95 65.14,67.55C68.35,64.98 71.12,59.37 74.44,58.72C77.37,58.15 80.77,62.82 83.75,62.36C87.01,61.86 89.75,55.65 93.06,54.83C96,54.1 99.46,55.15 102.36,56.64C105.73,58.37 108.3,64.49 111.67,65.44C114.57,66.26 117.88,64.21 120.97,63.47C124.08,62.72 127.32,60.37 130.28,60.97C133.56,61.64 136.73,68.74 139.58,68.24C143.05,67.64 145.78,58.36 148.89,53.46C151.98,48.6 155.26,44.29 158.19,38.96C161.51,32.92 164.11,24.77 167.5,18.93C170.39,13.94 173.16,7.33 176.8,5.78Q179.59,4.59 186.11,7.19" style="vector-effect: non-scaling-stroke; fill: none; stroke: rgb(134, 138, 145); stroke-opacity: 1; stroke-width: 2px; opacity: 1; stroke-dasharray: 9px, 9px;"/></g><g class="points"/><g class="text"/></g><g class="trace scatter tracebeff28" style="stroke-miterlimit: 2; opacity: 1;"><g class="fills"/><g class="errorbars"/><g class="lines"><path class="js-line" d="M0,49.71Q6.21,53.43 9.31,53.41C12.42,53.39 15.94,48.48 18.61,49.57C22.72,51.25 24.7,71.31 27.92,71.42C30.92,71.52 34.17,59.4 37.22,53.16C40.38,46.7 42.78,38.01 46.53,33.27C49.28,29.79 53.01,25.35 55.83,25.9C59.39,26.6 61.7,41.95 65.14,42.42C68.01,42.81 71.03,34.8 74.44,33.13C77.32,31.71 80.93,33.51 83.75,31.93C87.29,29.95 89.53,22.56 93.06,20.45C95.89,18.76 99.26,19.32 102.36,18.69C105.47,18.06 108.68,17.94 111.67,16.68C114.9,15.32 118.22,9.8 120.97,10.54C124.73,11.55 126.64,28.53 130.28,29.26C133.07,29.82 136.24,22.17 139.58,21.22C142.5,20.39 146.16,20.83 148.89,22.72C152.74,25.39 155.34,39.3 158.19,39.05C161.66,38.74 163.06,15.14 167.5,12.91C170.13,11.59 174.01,13.73 176.8,15.78Q180.42,18.43 186.11,29.23" style="vector-effect: non-scaling-stroke; fill: none; stroke: rgb(31, 133, 255); stroke-opacity: 1; stroke-width: 2px; opacity: 1;"/></g><g class="points"/><g class="text"/></g></g></g><g class="overplot"/><path class="xlines-above crisp" d="M0,0" style="fill: none;"/><path class="ylines-above crisp" d="M0,0" style="fill: none;"/><g class="overlines-above"/><g class="xaxislayer-above"><g class="x2tick"><text text-anchor="middle" x="0" y="428.7777777777777" transform="translate(80,0)" style="font-family: helvetica, verdana, arial, sans-serif; font-size: 10px; fill: rgb(42, 63, 95); fill-opacity: 1; white-space: pre; opacity: 1;">2000</text></g><g class="x2tick"><text text-anchor="middle" x="0" y="428.7777777777777" style="font-family: helvetica, verdana, arial, sans-serif; font-size: 10px; fill: rgb(42, 63, 95); fill-opacity: 1; white-space: pre; opacity: 1;" transform="translate(126.53,0)">2005</text></g><g class="x2tick"><text text-anchor="middle" x="0" y="428.7777777777777" style="font-family: helvetica, verdana, arial, sans-serif; font-size: 10px; fill: rgb(42, 63, 95); fill-opacity: 1; white-space: pre; opacity: 1;" transform="translate(173.06,0)">2010</text></g><g class="x2tick"><text text-anchor="middle" x="0" y="428.7777777777777" style="font-family: helvetica, verdana, arial, sans-serif; font-size: 10px; fill: rgb(42, 63, 95); fill-opacity: 1; white-space: pre; opacity: 1;" transform="translate(219.58,0)">2015</text></g><g class="x2tick"><text text-anchor="middle" x="0" y="428.7777777777777" style="font-family: helvetica, verdana, arial, sans-serif; font-size: 10px; fill: rgb(42, 63, 95); fill-opacity: 1; white-space: pre; opacity: 1;" transform="translate(266.11,0)">2020</text></g></g><g class="yaxislayer-above"><g class="y3tick"><text text-anchor="end" x="79" y="3.5" transform="translate(0,396.0822222222222)" style="font-family: helvetica, verdana, arial, sans-serif; font-size: 10px; fill: rgb(42, 63, 95); fill-opacity: 1; white-space: pre; opacity: 1;">45%</text></g><g class="y3tick"><text text-anchor="end" x="79" y="3.5" style="font-family: helvetica, verdana, arial, sans-serif; font-size: 10px; fill: rgb(42, 63, 95); fill-opacity: 1; white-space: pre; opacity: 1;" transform="translate(0,348.18222222222215)">50%</text></g></g><g class="overaxes-above"/></g><g class="subplot x3y4"><g class="layer-subplot"><g class="shapelayer"/><g class="imagelayer"/></g><g class="gridlayer"><g class="x3"/><g class="y4"><path class="y4grid crisp" transform="translate(0,375.3222222222222)" d="M366.71000000000004,0h186.10999999999999" style="stroke: rgb(235, 240, 248); stroke-opacity: 1; stroke-width: 1px;"/><path class="y4grid crisp" transform="translate(0,332.8422222222222)" d="M366.71000000000004,0h186.10999999999999" style="stroke: rgb(235, 240, 248); stroke-opacity: 1; stroke-width: 1px;"/></g></g><g class="zerolinelayer"/><path class="xlines-below"/><path class="ylines-below"/><g class="overlines-below"/><g class="xaxislayer-below"/><g class="yaxislayer-below"/><g class="overaxes-below"/><g class="plot" transform="translate(366.71000000000004,302.2222222222222)" clip-path="url(#clipf0d282x3y4plot)"><g class="scatterlayer mlayer"><g class="trace scatter tracead0008" style="stroke-miterlimit: 2; opacity: 1;"><g class="fills"/><g class="errorbars"/><g class="lines"><path class="js-line" d="M0,54.87Q5.82,41.66 9.31,36.75C12.15,32.76 15.63,30.61 18.61,27.01C21.86,23.08 24.32,15.23 27.92,13.97C30.72,12.99 34.58,14.22 37.22,16.63C41.54,20.57 42.73,39.87 46.53,40.64C49.27,41.19 53.09,30.48 55.83,31.03C59.62,31.79 62.09,46.69 65.14,54.79C68.3,63.18 70.48,79.57 74.44,80.52C77.14,81.17 80.74,75.01 83.75,71.83C86.96,68.44 89.78,63.89 93.06,60.71C96.02,57.84 99.55,56.7 102.36,53.41C105.94,49.22 108.63,36.59 111.67,36.66C114.84,36.73 117.4,54.71 120.97,55.32C123.78,55.8 127.43,50.04 130.28,46.3C133.76,41.72 136.27,29.52 139.58,29.26C142.52,29.03 145.51,38.17 148.89,41.33C151.79,44.03 155.61,43.68 158.19,47.53C163.52,55.49 163.05,93.42 167.5,94.31C170.13,94.84 173.11,82.75 176.8,80.45Q179.57,78.73 186.11,79.2" style="vector-effect: non-scaling-stroke; fill: none; stroke: rgb(134, 138, 145); stroke-opacity: 1; stroke-width: 2px; opacity: 1; stroke-dasharray: 9px, 9px;"/></g><g class="points"/><g class="text"/></g><g class="trace scatter trace1680c6" style="stroke-miterlimit: 2; opacity: 1;"><g class="fills"/><g class="errorbars"/><g class="lines"><path class="js-line" d="M0,39.72Q6.67,37.53 9.31,34.25C13.7,28.79 15.41,5.85 18.61,5.78C21.62,5.71 24.51,23.25 27.92,30.53C30.8,36.68 33.65,46.17 37.22,46.9C40.03,47.48 43.24,41.25 46.53,39.83C49.48,38.56 53.18,36.81 55.83,38.28C60.08,40.63 61.91,53.52 65.14,60.55C68.13,67.07 71.52,79.29 74.44,79.12C77.78,78.93 79.33,55.98 83.75,53.67C86.39,52.29 89.93,55.76 93.06,56.12C96.14,56.47 99.73,57.73 102.36,55.86C106.77,52.73 107.88,32.26 111.67,31.51C114.41,30.97 117.83,38.23 120.97,41.43C124.04,44.55 127.33,47.04 130.28,50.49C133.56,54.32 135.97,62.3 139.58,63.58C142.38,64.58 145.94,60.38 148.89,61.01C152.19,61.72 155.5,64.93 158.19,68.72C162.2,74.36 163.21,91.97 167.5,93.78C170.15,94.9 174.1,88.66 176.8,89.68Q180.78,91.18 186.11,109.78" style="vector-effect: non-scaling-stroke; fill: none; stroke: rgb(31, 133, 255); stroke-opacity: 1; stroke-width: 2px; opacity: 1;"/></g><g class="points"/><g class="text"/></g></g></g><g class="overplot"/><path class="xlines-above crisp" d="M0,0" style="fill: none;"/><path class="ylines-above crisp" d="M0,0" style="fill: none;"/><g class="overlines-above"/><g class="xaxislayer-above"><g class="x3tick"><text text-anchor="middle" x="0" y="428.7777777777777" transform="translate(366.71000000000004,0)" style="font-family: helvetica, verdana, arial, sans-serif; font-size: 10px; fill: rgb(42, 63, 95); fill-opacity: 1; white-space: pre; opacity: 1;">2000</text></g><g class="x3tick"><text text-anchor="middle" x="0" y="428.7777777777777" style="font-family: helvetica, verdana, arial, sans-serif; font-size: 10px; fill: rgb(42, 63, 95); fill-opacity: 1; white-space: pre; opacity: 1;" transform="translate(413.24,0)">2005</text></g><g class="x3tick"><text text-anchor="middle" x="0" y="428.7777777777777" style="font-family: helvetica, verdana, arial, sans-serif; font-size: 10px; fill: rgb(42, 63, 95); fill-opacity: 1; white-space: pre; opacity: 1;" transform="translate(459.77000000000004,0)">2010</text></g><g class="x3tick"><text text-anchor="middle" x="0" y="428.7777777777777" style="font-family: helvetica, verdana, arial, sans-serif; font-size: 10px; fill: rgb(42, 63, 95); fill-opacity: 1; white-space: pre; opacity: 1;" transform="translate(506.2900000000001,0)">2015</text></g><g class="x3tick"><text text-anchor="middle" x="0" y="428.7777777777777" style="font-family: helvetica, verdana, arial, sans-serif; font-size: 10px; fill: rgb(42, 63, 95); fill-opacity: 1; white-space: pre; opacity: 1;" transform="translate(552.82,0)">2020</text></g></g><g class="yaxislayer-above"><g class="y4tick"><text text-anchor="end" x="365.71000000000004" y="3.5" transform="translate(0,375.3222222222222)" style="font-family: helvetica, verdana, arial, sans-serif; font-size: 10px; fill: rgb(42, 63, 95); fill-opacity: 1; white-space: pre; opacity: 1;">12%</text></g><g class="y4tick"><text text-anchor="end" x="365.71000000000004" y="3.5" style="font-family: helvetica, verdana, arial, sans-serif; font-size: 10px; fill: rgb(42, 63, 95); fill-opacity: 1; white-space: pre; opacity: 1;" transform="translate(0,332.8422222222222)">14%</text></g></g><g class="overaxes-above"/></g><g class="subplot x4y5"><g class="layer-subplot"><g class="shapelayer"/><g class="imagelayer"/></g><g class="gridlayer"><g class="x4"/><g class="y5"><path class="y5grid crisp" transform="translate(0,613.8944444444445)" d="M80,0h186.10999999999999" style="stroke: rgb(235, 240, 248); stroke-opacity: 1; stroke-width: 1px;"/><path class="y5grid crisp" transform="translate(0,559.3344444444444)" d="M80,0h186.10999999999999" style="stroke: rgb(235, 240, 248); stroke-opacity: 1; stroke-width: 1px;"/></g></g><g class="zerolinelayer"/><path class="xlines-below"/><path class="ylines-below"/><g class="overlines-below"/><g class="xaxislayer-below"/><g class="yaxislayer-below"/><g class="overaxes-below"/><g class="plot" transform="translate(80,504.44444444444446)" clip-path="url(#clipf0d282x4y5plot)"><g class="scatterlayer mlayer"><g class="trace scatter tracebc3778" style="stroke-miterlimit: 2; opacity: 1;"><g class="fills"/><g class="errorbars"/><g class="lines"><path class="js-line" d="M0,40.88Q5.52,25.59 9.31,21.03C12.05,17.74 16,13.43 18.61,14.38C23.32,16.09 23.65,49.48 27.92,50.47C30.57,51.08 33.92,39.98 37.22,39.57C40.16,39.2 43.72,43.08 46.53,46.15C50.11,50.05 52.71,56.84 55.83,62.1C58.91,67.29 61.79,73.07 65.14,77.49C68.05,81.33 71.6,87.8 74.44,87.39C77.93,86.89 80.64,75.18 83.75,69.11C86.85,63.07 89.83,51.2 93.06,51.06C96.05,50.93 99.15,65.62 102.36,65.77C105.36,65.91 108.71,53.57 111.67,53.77C114.94,53.99 117.61,65.22 120.97,69.85C123.88,73.86 127.45,75.98 130.28,80.23C133.81,85.54 136.35,99.74 139.58,99.87C142.57,99.99 145.53,83.98 148.89,83.64C151.8,83.35 155,90.95 158.19,94.19C161.21,97.26 164.15,101.77 167.5,102.66C170.41,103.43 174.13,102.74 176.8,100.57Q180.9,97.24 186.11,80.14" style="vector-effect: non-scaling-stroke; fill: none; stroke: rgb(134, 138, 145); stroke-opacity: 1; stroke-width: 2px; opacity: 1; stroke-dasharray: 9px, 9px;"/></g><g class="points"/><g class="text"/></g><g class="trace scatter tracee69aed" style="stroke-miterlimit: 2; opacity: 1;"><g class="fills"/><g class="errorbars"/><g class="lines"><path class="js-line" d="M0,32.47Q6.6,32.93 9.31,31.01C13.22,28.25 15.06,18.27 18.61,13.85C21.43,10.34 24.66,6.25 27.92,5.78C30.89,5.35 34.62,6.95 37.22,9.99C42.02,15.6 42.97,33.97 46.53,43.54C49.34,51.11 52.3,57.91 55.83,63.23C58.66,67.48 62.15,69.83 65.14,73.59C68.37,77.64 71.83,87.39 74.44,86.82C79.12,85.79 79.63,36.17 83.75,35.63C86.42,35.28 88.98,53.33 93.06,55.47C95.74,56.87 99.79,52.1 102.36,53.89C108.31,58.04 107.8,103.21 111.67,103.59C114.39,103.86 117.06,85.72 120.97,80.37C123.68,76.66 127.03,73.17 130.28,72.69C133.25,72.25 136.7,77.26 139.58,76.58C143,75.78 145.44,66.77 148.89,65.82C151.75,65.03 155.58,66.26 158.19,68.91C162.82,73.61 163.51,91.25 167.5,98.3C170.19,103.06 173.31,107.04 176.8,108.83Q179.65,110.29 186.11,109.78" style="vector-effect: non-scaling-stroke; fill: none; stroke: rgb(31, 133, 255); stroke-opacity: 1; stroke-width: 2px; opacity: 1;"/></g><g class="points"/><g class="text"/></g></g></g><g class="overplot"/><path class="xlines-above crisp" d="M0,0" style="fill: none;"/><path class="ylines-above crisp" d="M0,0" style="fill: none;"/><g class="overlines-above"/><g class="xaxislayer-above"><g class="x4tick"><text text-anchor="middle" x="0" y="631" transform="translate(80,0)" style="font-family: helvetica, verdana, arial, sans-serif; font-size: 10px; fill: rgb(42, 63, 95); fill-opacity: 1; white-space: pre; opacity: 1;">2000</text></g><g class="x4tick"><text text-anchor="middle" x="0" y="631" style="font-family: helvetica, verdana, arial, sans-serif; font-size: 10px; fill: rgb(42, 63, 95); fill-opacity: 1; white-space: pre; opacity: 1;" transform="translate(126.53,0)">2005</text></g><g class="x4tick"><text text-anchor="middle" x="0" y="631" style="font-family: helvetica, verdana, arial, sans-serif; font-size: 10px; fill: rgb(42, 63, 95); fill-opacity: 1; white-space: pre; opacity: 1;" transform="translate(173.06,0)">2010</text></g><g class="x4tick"><text text-anchor="middle" x="0" y="631" style="font-family: helvetica, verdana, arial, sans-serif; font-size: 10px; fill: rgb(42, 63, 95); fill-opacity: 1; white-space: pre; opacity: 1;" transform="translate(219.58,0)">2015</text></g><g class="x4tick"><text text-anchor="middle" x="0" y="631" style="font-family: helvetica, verdana, arial, sans-serif; font-size: 10px; fill: rgb(42, 63, 95); fill-opacity: 1; white-space: pre; opacity: 1;" transform="translate(266.11,0)">2020</text></g></g><g class="yaxislayer-above"><g class="y5tick"><text text-anchor="end" x="79" y="3.5" transform="translate(0,613.8944444444445)" style="font-family: helvetica, verdana, arial, sans-serif; font-size: 10px; fill: rgb(42, 63, 95); fill-opacity: 1; white-space: pre; opacity: 1;">20%</text></g><g class="y5tick"><text text-anchor="end" x="79" y="3.5" style="font-family: helvetica, verdana, arial, sans-serif; font-size: 10px; fill: rgb(42, 63, 95); fill-opacity: 1; white-space: pre; opacity: 1;" transform="translate(0,559.3344444444444)">25%</text></g><g class="y5tick"><text text-anchor="end" x="79" y="3.5" style="font-family: helvetica, verdana, arial, sans-serif; font-size: 10px; fill: rgb(42, 63, 95); fill-opacity: 1; white-space: pre; opacity: 1;" transform="translate(0,504.77444444444444)">30%</text></g></g><g class="overaxes-above"/></g><g class="subplot x5y6"><g class="layer-subplot"><g class="shapelayer"/><g class="imagelayer"/></g><g class="gridlayer"><g class="x5"/><g class="y6"><path class="y6grid crisp" transform="translate(0,594.8944444444445)" d="M366.71000000000004,0h186.10999999999999" style="stroke: rgb(235, 240, 248); stroke-opacity: 1; stroke-width: 1px;"/><path class="y6grid crisp" transform="translate(0,560.6644444444445)" d="M366.71000000000004,0h186.10999999999999" style="stroke: rgb(235, 240, 248); stroke-opacity: 1; stroke-width: 1px;"/><path class="y6grid crisp" transform="translate(0,526.4344444444445)" d="M366.71000000000004,0h186.10999999999999" style="stroke: rgb(235, 240, 248); stroke-opacity: 1; stroke-width: 1px;"/></g></g><g class="zerolinelayer"/><path class="xlines-below"/><path class="ylines-below"/><g class="overlines-below"/><g class="xaxislayer-below"/><g class="yaxislayer-below"/><g class="overaxes-below"/><g class="plot" transform="translate(366.71000000000004,504.44444444444446)" clip-path="url(#clipf0d282x5y6plot)"><g class="scatterlayer mlayer"><g class="trace scatter tracebd9af8" style="stroke-miterlimit: 2; opacity: 1;"><g class="fills"/><g class="errorbars"/><g class="lines"><path class="js-line" d="M0,93.33Q6.48,95.85 9.31,94.77C12.84,93.42 15.75,87.89 18.61,83.39C22.07,77.95 24.54,69.65 27.92,63.98C30.82,59.11 33.82,51.7 37.22,51.13C40.11,50.65 43.76,54.53 46.53,57.71C50.22,61.93 51.91,72.48 55.83,75.59C58.54,77.74 62.35,76.04 65.14,77.97C68.76,80.47 71.62,91.52 74.44,91.18C77.98,90.76 80.67,67.59 83.75,67.61C86.88,67.63 89.71,84.73 93.06,92.14C95.98,98.6 98.87,109.26 102.36,109.78C105.2,110.2 108.36,102.79 111.67,100.38C114.61,98.24 118.02,97.76 120.97,95.65C124.26,93.29 127.24,86.46 130.28,86.58C133.45,86.71 136.28,96.78 139.58,97.21C142.52,97.59 146.11,90.24 148.89,90.92C152.56,91.82 154.26,105.96 158.19,108.15C160.9,109.66 164.78,109.31 167.5,107.62C171.38,105.21 173.56,91.31 176.8,91.14Q179.78,90.98 186.11,104.14" style="vector-effect: non-scaling-stroke; fill: none; stroke: rgb(134, 138, 145); stroke-opacity: 1; stroke-width: 2px; opacity: 1; stroke-dasharray: 9px, 9px;"/></g><g class="points"/><g class="text"/></g><g class="trace scatter trace1a194f" style="stroke-miterlimit: 2; opacity: 1;"><g class="fills"/><g class="errorbars"/><g class="lines"><path class="js-line" d="M0,5.78Q5.62,17.36 9.31,19.63C12.08,21.33 15.94,18.82 18.61,20.79C22.76,23.85 23.95,40.08 27.92,41.45C30.62,42.38 34.52,35.64 37.22,36.58C41.2,37.96 42.92,56.88 46.53,57.47C49.33,57.93 53.11,46.84 55.83,47.39C59.7,48.18 61.67,65.94 65.14,73.47C67.99,79.65 71.65,89.97 74.44,89.66C78.08,89.25 79.01,63.75 83.75,59.17C86.36,56.65 90.43,55.29 93.06,56.67C97.52,59.01 97.87,78.87 102.36,82.77C104.99,85.05 108.87,82.89 111.67,84.68C115.27,86.99 117.8,97.24 120.97,97.35C124.01,97.46 126.99,86.79 130.28,86.4C133.23,86.05 136.66,93.59 139.58,93.19C142.91,92.74 145.81,81.43 148.89,81.47C152.02,81.51 154.75,90.82 158.19,93.85C161.05,96.37 164.74,99.92 167.5,99.14C171.21,98.09 173.58,82.34 176.8,82.2Q179.8,82.07 186.11,96.13" style="vector-effect: non-scaling-stroke; fill: none; stroke: rgb(31, 133, 255); stroke-opacity: 1; stroke-width: 2px; opacity: 1;"/></g><g class="points"/><g class="text"/></g></g></g><g class="overplot"/><path class="xlines-above crisp" d="M0,0" style="fill: none;"/><path class="ylines-above crisp" d="M0,0" style="fill: none;"/><g class="overlines-above"/><g class="xaxislayer-above"><g class="x5tick"><text text-anchor="middle" x="0" y="631" transform="translate(366.71000000000004,0)" style="font-family: helvetica, verdana, arial, sans-serif; font-size: 10px; fill: rgb(42, 63, 95); fill-opacity: 1; white-space: pre; opacity: 1;">2000</text></g><g class="x5tick"><text text-anchor="middle" x="0" y="631" style="font-family: helvetica, verdana, arial, sans-serif; font-size: 10px; fill: rgb(42, 63, 95); fill-opacity: 1; white-space: pre; opacity: 1;" transform="translate(413.24,0)">2005</text></g><g class="x5tick"><text text-anchor="middle" x="0" y="631" style="font-family: helvetica, verdana, arial, sans-serif; font-size: 10px; fill: rgb(42, 63, 95); fill-opacity: 1; white-space: pre; opacity: 1;" transform="translate(459.77000000000004,0)">2010</text></g><g class="x5tick"><text text-anchor="middle" x="0" y="631" style="font-family: helvetica, verdana, arial, sans-serif; font-size: 10px; fill: rgb(42, 63, 95); fill-opacity: 1; white-space: pre; opacity: 1;" transform="translate(506.2900000000001,0)">2015</text></g><g class="x5tick"><text text-anchor="middle" x="0" y="631" style="font-family: helvetica, verdana, arial, sans-serif; font-size: 10px; fill: rgb(42, 63, 95); fill-opacity: 1; white-space: pre; opacity: 1;" transform="translate(552.82,0)">2020</text></g></g><g class="yaxislayer-above"><g class="y6tick"><text text-anchor="end" x="365.71000000000004" y="3.5" transform="translate(0,594.8944444444445)" style="font-family: helvetica, verdana, arial, sans-serif; font-size: 10px; fill: rgb(42, 63, 95); fill-opacity: 1; white-space: pre; opacity: 1;">25%</text></g><g class="y6tick"><text text-anchor="end" x="365.71000000000004" y="3.5" style="font-family: helvetica, verdana, arial, sans-serif; font-size: 10px; fill: rgb(42, 63, 95); fill-opacity: 1; white-space: pre; opacity: 1;" transform="translate(0,560.6644444444445)">30%</text></g><g class="y6tick"><text text-anchor="end" x="365.71000000000004" y="3.5" style="font-family: helvetica, verdana, arial, sans-serif; font-size: 10px; fill: rgb(42, 63, 95); fill-opacity: 1; white-space: pre; opacity: 1;" transform="translate(0,526.4344444444445)">35%</text></g></g><g class="overaxes-above"/></g><g class="subplot xy2"/></g><g class="polarlayer"/><g class="ternarylayer"/><g class="geolayer"/><g class="funnelarealayer"/><g class="pielayer"/><g class="iciclelayer"/><g class="treemaplayer"/><g class="sunburstlayer"/><g class="glimages"/><defs id="topdefs-f0d282"><g class="clips"/><clipPath id="legendf0d282"><rect width="95" height="115" x="0" y="0"/></clipPath></defs><g class="layer-above"><g class="imagelayer"/><g class="shapelayer"/></g><g class="infolayer"><g class="legend" pointer-events="all" transform="translate(593.0600000000001,100)"><rect class="bg" shape-rendering="crispEdges" width="95" height="115" x="0" y="0" style="stroke: rgb(68, 68, 68); stroke-opacity: 1; fill: rgb(255, 255, 255); fill-opacity: 1; stroke-width: 0px;"/><g class="scrollbox" transform="" clip-path="url(#legendf0d282)"><g class="groups" transform=""><g class="traces" transform="translate(0,14.5)" style="opacity: 1;"><text class="legendtext" text-anchor="start" x="5" y="4.29" style="font-family: helvetica, verdana, arial, sans-serif; font-size: 11px; fill: rgb(42, 63, 95); fill-opacity: 1; white-space: pre;">Index (Left)</text><g class="layers"><g class="legendfill"/><g class="legendlines"/><g class="legendsymbols"><g class="legendpoints"/></g></g><rect class="legendtoggle" x="0" y="-9.5" width="89.515625" height="19" style="fill: rgb(0, 0, 0); fill-opacity: 0;"/></g><g class="traces" transform="translate(0,33.5)" style="opacity: 1;"><text class="legendtext" text-anchor="start" x="40" y="3.9" style="font-family: helvetica, verdana, arial, sans-serif; font-size: 10px; fill: rgb(42, 63, 95); fill-opacity: 1; white-space: pre;">Opponent</text><g class="layers" style="opacity: 1;"><g class="legendfill"/><g class="legendlines"><path class="js-line" d="M5,0h30" style="fill: none; stroke: rgb(134, 138, 145); stroke-opacity: 1; stroke-dasharray: 9px, 9px; stroke-width: 2px;"/></g><g class="legendsymbols"><g class="legendpoints"/></g></g><rect class="legendtoggle" x="0" y="-9.5" width="89.515625" height="19" style="fill: rgb(0, 0, 0); fill-opacity: 0;"/></g><g class="traces" transform="translate(0,52.5)" style="opacity: 1;"><text class="legendtext" text-anchor="start" x="40" y="3.9" style="font-family: helvetica, verdana, arial, sans-serif; font-size: 10px; fill: rgb(42, 63, 95); fill-opacity: 1; white-space: pre;">SAS</text><g class="layers" style="opacity: 1;"><g class="legendfill"/><g class="legendlines"><path class="js-line" d="M5,0h30" style="fill: none; stroke: rgb(31, 133, 255); stroke-opacity: 1; stroke-width: 2px;"/></g><g class="legendsymbols"><g class="legendpoints"/></g></g><rect class="legendtoggle" x="0" y="-9.5" width="89.515625" height="19" style="fill: rgb(0, 0, 0); fill-opacity: 0;"/></g></g><g class="groups" transform="translate(0,10)"><g class="traces" transform="translate(0,71.5)" style="opacity: 1;"><text class="legendtext" text-anchor="start" x="5" y="4.29" style="font-family: helvetica, verdana, arial, sans-serif; font-size: 11px; fill: rgb(42, 63, 95); fill-opacity: 1; white-space: pre;">Win% (Right)</text><g class="layers"><g class="legendfill"/><g class="legendlines"/><g class="legendsymbols"><g class="legendpoints"/></g></g><rect class="legendtoggle" x="0" y="-9.5" width="89.515625" height="19" style="fill: rgb(0, 0, 0); fill-opacity: 0;"/></g><g class="traces" transform="translate(0,90.5)" style="opacity: 1;"><text class="legendtext" text-anchor="start" x="40" y="3.9" style="font-family: helvetica, verdana, arial, sans-serif; font-size: 10px; fill: rgb(42, 63, 95); fill-opacity: 1; white-space: pre;">SAS</text><g class="layers" style="opacity: 1;"><g class="legendfill"/><g class="legendlines"/><g class="legendsymbols"><g class="legendpoints"><path class="legendundefined" d="M6,6H-6V-6H6Z" transform="translate(20,0)" style="stroke-width: 0.5px; fill: rgb(189, 219, 255); fill-opacity: 1; stroke: rgb(255, 255, 255); stroke-opacity: 1;"/></g></g></g><rect class="legendtoggle" x="0" y="-9.5" width="89.515625" height="19" style="fill: rgb(0, 0, 0); fill-opacity: 0;"/></g></g></g><rect class="scrollbar" rx="20" ry="3" width="0" height="0" x="0" y="0" style="fill: rgb(128, 139, 164); fill-opacity: 1;"/></g><g class="g-gtitle"><text class="gtitle" x="35" y="50" text-anchor="start" dy="0em" style="font-family: helvetica, verdana, arial, sans-serif; font-size: 20px; fill: rgb(42, 63, 95); opacity: 1; font-weight: normal; white-space: pre;"><tspan class="line" dy="0em" x="35" y="50"><tspan style="font-weight:bold">NBA Four Factors Index &amp; Components</tspan></tspan><tspan class="line" dy="1.3em" x="35" y="50">San Antonio Spurs</tspan></text></g><g class="g-xtitle"/><g class="g-x2title"/><g class="g-x3title"/><g class="g-x4title"/><g class="g-x5title"/><g class="g-ytitle"/><g class="g-y2title"/><g class="g-y3title"/><g class="g-y4title"/><g class="g-y5title"/><g class="g-y6title"/><g class="annotation" data-index="0" style="opacity: 1;"><g class="annotation-text-g" transform="rotate(0,316.41,90)"><g class="cursor-pointer" transform="translate(250,80)"><rect class="bg" x="0.5" y="0.5" width="131" height="19" style="stroke-width: 1px; stroke: rgb(0, 0, 0); stroke-opacity: 0; fill: rgb(0, 0, 0); fill-opacity: 0;"/><text class="annotation-text" text-anchor="middle" x="66.171875" y="15" style="font-family: helvetica, verdana, arial, sans-serif; font-size: 14px; fill: rgb(42, 63, 95); fill-opacity: 1; white-space: pre;">Four Factors Index</text></g></g></g><g class="annotation" data-index="1" style="opacity: 1;"><g class="annotation-text-g" transform="rotate(0,173.055,292.2222222222222)"><g class="cursor-pointer" transform="translate(151,282)"><rect class="bg" x="0.5" y="0.5" width="44" height="19" style="stroke-width: 1px; stroke: rgb(0, 0, 0); stroke-opacity: 0; fill: rgb(0, 0, 0); fill-opacity: 0;"/><text class="annotation-text" text-anchor="middle" x="22.421875" y="15" style="font-family: helvetica, verdana, arial, sans-serif; font-size: 14px; fill: rgb(42, 63, 95); fill-opacity: 1; white-space: pre;">eFG%</text></g></g></g><g class="annotation" data-index="2" style="opacity: 1;"><g class="annotation-text-g" transform="rotate(0,459.76500000000004,292.2222222222222)"><g class="cursor-pointer" transform="translate(436,282)"><rect class="bg" x="0.5" y="0.5" width="46" height="19" style="stroke-width: 1px; stroke: rgb(0, 0, 0); stroke-opacity: 0; fill: rgb(0, 0, 0); fill-opacity: 0;"/><text class="annotation-text" text-anchor="middle" x="24.109375" y="15" style="font-family: helvetica, verdana, arial, sans-serif; font-size: 14px; fill: rgb(42, 63, 95); fill-opacity: 1; white-space: pre;">TOV%</text></g></g></g><g class="annotation" data-index="3" style="opacity: 1;"><g class="annotation-text-g" transform="rotate(0,173.055,494.44444444444446)"><g class="cursor-pointer" transform="translate(145,484)"><rect class="bg" x="0.5" y="0.5" width="56" height="19" style="stroke-width: 1px; stroke: rgb(0, 0, 0); stroke-opacity: 0; fill: rgb(0, 0, 0); fill-opacity: 0;"/><text class="annotation-text" text-anchor="middle" x="28.25" y="15" style="font-family: helvetica, verdana, arial, sans-serif; font-size: 14px; fill: rgb(42, 63, 95); fill-opacity: 1; white-space: pre;">OREB%</text></g></g></g><g class="annotation" data-index="4" style="opacity: 1;"><g class="annotation-text-g" transform="rotate(0,459.76500000000004,494.44444444444446)"><g class="cursor-pointer" transform="translate(427,484)"><rect class="bg" x="0.5" y="0.5" width="64" height="19" style="stroke-width: 1px; stroke: rgb(0, 0, 0); stroke-opacity: 0; fill: rgb(0, 0, 0); fill-opacity: 0;"/><text class="annotation-text" text-anchor="middle" x="32.703125" y="15" style="font-family: helvetica, verdana, arial, sans-serif; font-size: 14px; fill: rgb(42, 63, 95); fill-opacity: 1; white-space: pre;">FTA Rate</text></g></g></g></g></svg>