<svg class="main-svg" xmlns="http://www.w3.org/2000/svg" xmlns:xlink="http://www.w3.org/1999/xlink" width="600" height="600" style="" viewBox="0 0 600 600"><rect x="0" y="0" width="600" height="600" style="fill: rgb(255, 255, 255); fill-opacity: 1;"/><defs id="defs-11031e"><g class="clips"><clipPath id="clip11031exyplot" class="plotclip"><rect width="380.70000000000005" height="93.33333333333333"/></clipPath><clipPath id="clip11031exy2plot" class="plotclip"><rect width="380.70000000000005" height="93.33333333333333"/></clipPath><clipPath id="clip11031ex2y3plot" class="plotclip"><rect width="149.85" height="93.33333333333336"/></clipPath><clipPath id="clip11031ex3y4plot" class="plotclip"><rect width="149.85" height="93.33333333333336"/></clipPath><clipPath id="clip11031ex4y5plot" class="plotclip"><rect width="149.85" height="93.33333333333334"/></clipPath><clipPath id="clip11031ex5y6plot" class="plotclip"><rect width="149.85" height="93.33333333333334"/></clipPath><clipPath class="axesclip" id="clip11031ex"><rect x="80" y="0" width="380.70000000000005" height="600"/></clipPath><clipPath class="axesclip" id="clip11031ey"><rect x="0" y="100" width="600" height="93.33333333333333"/></clipPath><clipPath class="axesclip" id="clip11031exy"><rect x="80" y="100" width="380.70000000000005" height="93.33333333333333"/></clipPath><clipPath class="axesclip" id="clip11031ey2"><rect x="0" y="100" width="600" height="93.33333333333333"/></clipPath><clipPath class="axesclip" id="clip11031exy2"><rect x="80" y="100" width="380.70000000000005" height="93.33333333333333"/></clipPath><clipPath class="axesclip" id="clip11031ey3"><rect x="0" y="263.3333333333333" width="600" height="93.33333333333336"/></clipPath><clipPath class="axesclip" id="clip11031exy3"><rect x="80" y="263.3333333333333" width="380.70000000000005" height="93.33333333333336"/></clipPath><clipPath class="axesclip" id="clip11031ey4"><rect x="0" y="263.3333333333333" width="600" height="93.33333333333336"/></clipPath><clipPath class="axesclip" id="clip11031exy4"><rect x="80" y="263.3333333333333" width="380.70000000000005" height="93.33333333333336"/></clipPath><clipPath class="axesclip" id="clip11031ey5"><rect x="0" y="426.6666666666667" width="600" height="93.33333333333334"/></clipPath><clipPath class="axesclip" id="clip11031exy5"><rect x="80" y="426.6666666666667" width="380.70000000000005" height="93.33333333333334"/></clipPath><clipPath class="axesclip" id="clip11031ey6"><rect x="0" y="426.6666666666667" width="600" height="93.33333333333334"/></clipPath><clipPath class="axesclip" id="clip11031exy6"><rect x="80" y="426.6666666666667" width="380.70000000000005" height="93.33333333333334"/></clipPath><clipPath class="axesclip" id="clip11031ex2"><rect x="80" y="0" width="149.85" height="600"/></clipPath><clipPath class="axesclip" id="clip11031ex2y"><rect x="80" y="100" width="149.85" height="93.33333333333333"/></clipPath><clipPath class="axesclip" id="clip11031ex2y2"><rect x="80" y="100" width="149.85" height="93.33333333333333"/></clipPath><clipPath class="axesclip" id="clip11031ex2y3"><rect x="80" y="263.3333333333333" width="149.85" height="93.33333333333336"/></clipPath><clipPath class="axesclip" id="clip11031ex2y4"><rect x="80" y="263.3333333333333" width="149.85" height="93.33333333333336"/></clipPath><clipPath class="axesclip" id="clip11031ex2y5"><rect x="80" y="426.6666666666667" width="149.85" height="93.33333333333334"/></clipPath><clipPath class="axesclip" id="clip11031ex2y6"><rect x="80" y="426.6666666666667" width="149.85" height="93.33333333333334"/></clipPath><clipPath class="axesclip" id="clip11031ex3"><rect x="310.85" y="0" width="149.85" height="600"/></clipPath><clipPath class="axesclip" id="clip11031ex3y"><rect x="310.85" y="100" width="149.85" height="93.33333333333333"/></clipPath><clipPath class="axesclip" id="clip11031ex3y2"><rect x="310.85" y="100" width="149.85" height="93.33333333333333"/></clipPath><clipPath class="axesclip" id="clip11031ex3y3"><rect x="310.85" y="263.3333333333333" width="149.85" height="93.33333333333336"/></clipPath><clipPath class="axesclip" id="clip11031ex3y4"><rect x="310.85" y="263.3333333333333" width="149.85" height="93.33333333333336"/></clipPath><clipPath class="axesclip" id="clip11031ex3y5"><rect x="310.85" y="426.6666666666667" width="149.85" height="93.33333333333334"/></clipPath><clipPath class="axesclip" id="clip11031ex3y6"><rect x="310.85" y="426.6666666666667" width="149.85" height="93.33333333333334"/></clipPath><clipPath class="axesclip" id="clip11031ex4"><rect x="80" y="0" width="149.85" height="600"/></clipPath><clipPath class="axesclip" id="clip11031ex4y"><rect x="80" y="100" width="149.85" height="93.33333333333333"/></clipPath><clipPath class="axesclip" id="clip11031ex4y2"><rect x="80" y="100" width="149.85" height="93.33333333333333"/></clipPath><clipPath class="axesclip" id="clip11031ex4y3"><rect x="80" y="263.3333333333333" width="149.85" height="93.33333333333336"/></clipPath><clipPath class="axesclip" id="clip11031ex4y4"><rect x="80" y="263.3333333333333" width="149.85" height="93.33333333333336"/></clipPath><clipPath class="axesclip" id="clip11031ex4y5"><rect x="80" y="426.6666666666667" width="149.85" height="93.33333333333334"/></clipPath><clipPath class="axesclip" id="clip11031ex4y6"><rect x="80" y="426.6666666666667" width="149.85" height="93.33333333333334"/></clipPath><clipPath class="axesclip" id="clip11031ex5"><rect x="310.85" y="0" width="149.85" height="600"/></clipPath><clipPath class="axesclip" id="clip11031ex5y"><rect x="310.85" y="100" width="149.85" height="93.33333333333333"/></clipPath><clipPath class="axesclip" id="clip11031ex5y2"><rect x="310.85" y="100" width="149.85" height="93.33333333333333"/></clipPath><clipPath class="axesclip" id="clip11031ex5y3"><rect x="310.85" y="263.3333333333333" width="149.85" height="93.33333333333336"/></clipPath><clipPath class="axesclip" id="clip11031ex5y4"><rect x="310.85" y="263.3333333333333" width="149.85" height="93.33333333333336"/></clipPath><clipPath class="axesclip" id="clip11031ex5y5"><rect x="310.85" y="426.6666666666667" width="149.85" height="93.33333333333334"/></clipPath><clipPath class="axesclip" id="clip11031ex5y6"><rect x="310.85" y="426.6666666666667" width="149.85" height="93.33333333333334"/></clipPath></g><g class="gradients"/><g class="patterns"/></defs><g class="bglayer"/><g class="layer-below"><g class="imagelayer"/><g class="shapelayer"/></g><g class="cartesianlayer"><g class="subplot xy"><g class="layer-subplot"><g class="shapelayer"/><g class="imagelayer"/></g><g class="gridlayer"><g class="x"/><g class="y"/><g class="y2"/></g><g class="zerolinelayer"><path class="yzl zl crisp" transform="translate(0,193.32999999999998)" d="M80,0h380.70000000000005" style="stroke: rgb(235, 240, 248); stroke-opacity: 1; stroke-width: 2px;"/></g><path class="xlines-below"/><path class="ylines-below"/><g class="overlines-below"><path class="xy2-x"/><path class="xy2-y"/></g><g class="xaxislayer-below"/><g class="yaxislayer-below"/><g class="overaxes-below"><g class="xy2-x"/><g class="xy2-y"/></g><g class="plot" transform="translate(80,100)" clip-path="url(#clip11031exyplot)"><g class="barlayer mlayer"><g class="trace bars" style="opacity: 1;"><g class="points"><g class="point"><path d="M1.66,93.33V13.03H14.9V93.33Z" style="vector-effect: non-scaling-stroke; opacity: 1; stroke-width: 0.5px; fill: rgb(189, 219, 255); fill-opacity: 1; stroke: rgb(255, 255, 255); stroke-opacity: 1;"/></g><g class="point"><path d="M18.21,93.33V23.19H31.45V93.33Z" style="vector-effect: non-scaling-stroke; opacity: 1; stroke-width: 0.5px; fill: rgb(189, 219, 255); fill-opacity: 1; stroke: rgb(255, 255, 255); stroke-opacity: 1;"/></g><g class="point"><path d="M34.76,93.33V16.58H48V93.33Z" style="vector-effect: non-scaling-stroke; opacity: 1; stroke-width: 0.5px; fill: rgb(189, 219, 255); fill-opacity: 1; stroke: rgb(255, 255, 255); stroke-opacity: 1;"/></g><g class="point"><path d="M51.31,93.33V16.58H64.55V93.33Z" style="vector-effect: non-scaling-stroke; opacity: 1; stroke-width: 0.5px; fill: rgb(189, 219, 255); fill-opacity: 1; stroke: rgb(255, 255, 255); stroke-opacity: 1;"/></g><g class="point"><path d="M67.86,93.33V13.58H81.11V93.33Z" style="vector-effect: non-scaling-stroke; opacity: 1; stroke-width: 0.5px; fill: rgb(189, 219, 255); fill-opacity: 1; stroke: rgb(255, 255, 255); stroke-opacity: 1;"/></g><g class="point"><path d="M84.42,93.33V17.9H97.66V93.33Z" style="vector-effect: non-scaling-stroke; opacity: 1; stroke-width: 0.5px; fill: rgb(189, 219, 255); fill-opacity: 1; stroke: rgb(255, 255, 255); stroke-opacity: 1;"/></g><g class="point"><path d="M100.97,93.33V15.25H114.21V93.33Z" style="vector-effect: non-scaling-stroke; opacity: 1; stroke-width: 0.5px; fill: rgb(189, 219, 255); fill-opacity: 1; stroke: rgb(255, 255, 255); stroke-opacity: 1;"/></g><g class="point"><path d="M117.52,93.33V9.96H130.76V93.33Z" style="vector-effect: non-scaling-stroke; opacity: 1; stroke-width: 0.5px; fill: rgb(189, 219, 255); fill-opacity: 1; stroke: rgb(255, 255, 255); stroke-opacity: 1;"/></g><g class="point"><path d="M134.07,93.33V16.58H147.31V93.33Z" style="vector-effect: non-scaling-stroke; opacity: 1; stroke-width: 0.5px; fill: rgb(189, 219, 255); fill-opacity: 1; stroke: rgb(255, 255, 255); stroke-opacity: 1;"/></g><g class="point"><path d="M150.62,93.33V20.12H163.87V93.33Z" style="vector-effect: non-scaling-stroke; opacity: 1; stroke-width: 0.5px; fill: rgb(189, 219, 255); fill-opacity: 1; stroke: rgb(255, 255, 255); stroke-opacity: 1;"/></g><g class="point"><path d="M167.18,93.33V21.87H180.42V93.33Z" style="vector-effect: non-scaling-stroke; opacity: 1; stroke-width: 0.5px; fill: rgb(189, 219, 255); fill-opacity: 1; stroke: rgb(255, 255, 255); stroke-opacity: 1;"/></g><g class="point"><path d="M183.73,93.33V27.16H196.97V93.33Z" style="vector-effect: non-scaling-stroke; opacity: 1; stroke-width: 0.5px; fill: rgb(189, 219, 255); fill-opacity: 1; stroke: rgb(255, 255, 255); stroke-opacity: 1;"/></g><g class="point"><path d="M200.28,93.33V12.61H213.52V93.33Z" style="vector-effect: non-scaling-stroke; opacity: 1; stroke-width: 0.5px; fill: rgb(189, 219, 255); fill-opacity: 1; stroke: rgb(255, 255, 255); stroke-opacity: 1;"/></g><g class="point"><path d="M216.83,93.33V11.12H230.08V93.33Z" style="vector-effect: non-scaling-stroke; opacity: 1; stroke-width: 0.5px; fill: rgb(189, 219, 255); fill-opacity: 1; stroke: rgb(255, 255, 255); stroke-opacity: 1;"/></g><g class="point"><path d="M233.39,93.33V16.58H246.63V93.33Z" style="vector-effect: non-scaling-stroke; opacity: 1; stroke-width: 0.5px; fill: rgb(189, 219, 255); fill-opacity: 1; stroke: rgb(255, 255, 255); stroke-opacity: 1;"/></g><g class="point"><path d="M249.94,93.33V11.28H263.18V93.33Z" style="vector-effect: non-scaling-stroke; opacity: 1; stroke-width: 0.5px; fill: rgb(189, 219, 255); fill-opacity: 1; stroke: rgb(255, 255, 255); stroke-opacity: 1;"/></g><g class="point"><path d="M266.49,93.33V20.55H279.73V93.33Z" style="vector-effect: non-scaling-stroke; opacity: 1; stroke-width: 0.5px; fill: rgb(189, 219, 255); fill-opacity: 1; stroke: rgb(255, 255, 255); stroke-opacity: 1;"/></g><g class="point"><path d="M283.04,93.33V4.67H296.28V93.33Z" style="vector-effect: non-scaling-stroke; opacity: 1; stroke-width: 0.5px; fill: rgb(189, 219, 255); fill-opacity: 1; stroke: rgb(255, 255, 255); stroke-opacity: 1;"/></g><g class="point"><path d="M299.59,93.33V12.61H312.84V93.33Z" style="vector-effect: non-scaling-stroke; opacity: 1; stroke-width: 0.5px; fill: rgb(189, 219, 255); fill-opacity: 1; stroke: rgb(255, 255, 255); stroke-opacity: 1;"/></g><g class="point"><path d="M316.15,93.33V31.13H329.39V93.33Z" style="vector-effect: non-scaling-stroke; opacity: 1; stroke-width: 0.5px; fill: rgb(189, 219, 255); fill-opacity: 1; stroke: rgb(255, 255, 255); stroke-opacity: 1;"/></g><g class="point"><path d="M332.7,93.33V29.81H345.94V93.33Z" style="vector-effect: non-scaling-stroke; opacity: 1; stroke-width: 0.5px; fill: rgb(189, 219, 255); fill-opacity: 1; stroke: rgb(255, 255, 255); stroke-opacity: 1;"/></g><g class="point"><path d="M349.25,93.33V44.42H362.49V93.33Z" style="vector-effect: non-scaling-stroke; opacity: 1; stroke-width: 0.5px; fill: rgb(189, 219, 255); fill-opacity: 1; stroke: rgb(255, 255, 255); stroke-opacity: 1;"/></g><g class="point"><path d="M365.8,93.33V43.6H379.04V93.33Z" style="vector-effect: non-scaling-stroke; opacity: 1; stroke-width: 0.5px; fill: rgb(189, 219, 255); fill-opacity: 1; stroke: rgb(255, 255, 255); stroke-opacity: 1;"/></g></g></g></g></g><g class="overplot"><g class="xy2" transform="translate(80,100)" clip-path="url(#clip11031exy2plot)"><g class="scatterlayer mlayer"><g class="trace scatter tracea2d140" style="stroke-miterlimit: 2; opacity: 1;"><g class="fills"/><g class="errorbars"/><g class="lines"><path class="js-line" d="M8.28,74.38Q19.43,71.81 24.83,72.67C30.47,73.57 35.91,80.24 41.38,80.03C46.95,79.82 52.27,73.28 57.93,71.11C63.32,69.05 69.47,65.34 74.48,67.11C80.81,69.34 85.61,88.8 91.04,88.67C96.65,88.54 101.12,69.28 107.59,64.85C112.55,61.46 118.63,60.8 124.14,60.85C129.66,60.9 135.16,65.08 140.69,65.14C146.2,65.2 151.73,62.53 157.25,61.24C162.77,59.96 168.5,59.76 173.8,57.43C179.57,54.89 184.54,47.78 190.35,46.06C195.63,44.5 201.75,44.39 206.9,46.51C212.93,48.99 217.44,59.12 223.45,62.07C228.61,64.6 234.48,64.62 240.01,64.7C245.52,64.78 251.03,62.96 256.56,62.59C262.07,62.22 268.11,60.08 273.11,62.47C279.45,65.51 284.21,83.44 289.66,83.33C295.26,83.22 299.77,64.4 306.22,60.61C311.19,57.69 317.82,61.54 322.77,58.57C329.28,54.66 333.4,41.62 339.32,34.92C344.52,29.03 349.88,22.35 355.87,19.98Q361.03,17.94 372.42,19.67" style="vector-effect: non-scaling-stroke; fill: none; stroke: rgb(134, 138, 145); stroke-opacity: 1; stroke-width: 2px; opacity: 1; stroke-dasharray: 9px, 9px;"/></g><g class="points"/><g class="text"/></g><g class="trace scatter tracec39e9f" style="stroke-miterlimit: 2; opacity: 1;"><g class="fills"/><g class="errorbars"/><g class="lines"><path class="js-line" d="M8.28,10.67Q19.53,20.47 24.83,19.84C30.6,19.16 35.62,5.32 41.38,4.67C46.69,4.07 52.22,12.98 57.93,14.1C63.28,15.15 69.39,10.1 74.48,11.92C80.61,14.11 85.57,29.61 91.04,29.53C96.61,29.44 101.51,12.32 107.59,10.8C112.71,9.52 118.55,16.46 124.14,16.99C129.59,17.5 135.72,12.14 140.69,14.15C147.12,16.75 150.79,33.54 157.25,36.77C162.21,39.25 168.9,39.3 173.8,36.59C180.46,32.9 183.75,15.43 190.35,10.78C195.26,7.32 201.52,6.24 206.9,6.98C212.57,7.76 218.36,11.59 223.45,15.97C229.6,21.27 233.91,36.77 240.01,37.96C245.12,38.96 250.9,28.65 256.56,28.04C261.95,27.46 267.58,33.57 273.11,33.64C278.62,33.71 284.19,30.49 289.66,28.51C295.23,26.5 301.05,20.54 306.22,21.64C312.21,22.91 317.1,38.8 322.77,39.12C328.15,39.43 333.38,27.4 339.32,25.2C344.51,23.27 350.62,23.31 355.87,25.02Q361.73,26.92 372.42,37.33" style="vector-effect: non-scaling-stroke; fill: none; stroke: rgb(31, 133, 255); stroke-opacity: 1; stroke-width: 2.5px; opacity: 1;"/></g><g class="points"/><g class="text"/></g></g></g></g><path class="xlines-above crisp" d="M0,0" style="fill: none;"/><path class="ylines-above crisp" d="M0,0" style="fill: none;"/><g class="overlines-above"><path class="xy2-x crisp" d="M0,0" style="fill: none;"/><path class="xy2-y crisp" d="M0,0" style="fill: none;"/></g><g class="xaxislayer-above"><g class="xtick"><text text-anchor="middle" x="0" y="204.33333333333331" transform="translate(121.38,0)" style="font-family: helvetica, verdana, arial, sans-serif; font-size: 10px; fill: rgb(42, 63, 95); fill-opacity: 1; white-space: pre; opacity: 1;">2000</text></g><g class="xtick"><text text-anchor="middle" x="0" y="204.33333333333331" style="font-family: helvetica, verdana, arial, sans-serif; font-size: 10px; fill: rgb(42, 63, 95); fill-opacity: 1; white-space: pre; opacity: 1;" transform="translate(204.14,0)">2005</text></g><g class="xtick"><text text-anchor="middle" x="0" y="204.33333333333331" style="font-family: helvetica, verdana, arial, sans-serif; font-size: 10px; fill: rgb(42, 63, 95); fill-opacity: 1; white-space: pre; opacity: 1;" transform="translate(286.9,0)">2010</text></g><g class="xtick"><text text-anchor="middle" x="0" y="204.33333333333331" style="font-family: helvetica, verdana, arial, sans-serif; font-size: 10px; fill: rgb(42, 63, 95); fill-opacity: 1; white-space: pre; opacity: 1;" transform="translate(369.66,0)">2015</text></g><g class="xtick"><text text-anchor="middle" x="0" y="204.33333333333331" style="font-family: helvetica, verdana, arial, sans-serif; font-size: 10px; fill: rgb(42, 63, 95); fill-opacity: 1; white-space: pre; opacity: 1;" transform="translate(452.42,0)">2020</text></g></g><g class="yaxislayer-above"><g class="ytick"><text text-anchor="start" x="461.70000000000005" y="3.5" transform="translate(0,193.32999999999998)" style="font-family: helvetica, verdana, arial, sans-serif; font-size: 10px; fill: rgb(42, 63, 95); fill-opacity: 1; white-space: pre; opacity: 1;">0.00</text></g><g class="ytick"><text text-anchor="start" x="461.70000000000005" y="3.5" style="font-family: helvetica, verdana, arial, sans-serif; font-size: 10px; fill: rgb(42, 63, 95); fill-opacity: 1; white-space: pre; opacity: 1;" transform="translate(0,171.63)">0.20</text></g><g class="ytick"><text text-anchor="start" x="461.70000000000005" y="3.5" style="font-family: helvetica, verdana, arial, sans-serif; font-size: 10px; fill: rgb(42, 63, 95); fill-opacity: 1; white-space: pre; opacity: 1;" transform="translate(0,149.93)">0.40</text></g><g class="ytick"><text text-anchor="start" x="461.70000000000005" y="3.5" style="font-family: helvetica, verdana, arial, sans-serif; font-size: 10px; fill: rgb(42, 63, 95); fill-opacity: 1; white-space: pre; opacity: 1;" transform="translate(0,128.22)">0.60</text></g><g class="ytick"><text text-anchor="start" x="461.70000000000005" y="3.5" style="font-family: helvetica, verdana, arial, sans-serif; font-size: 10px; fill: rgb(42, 63, 95); fill-opacity: 1; white-space: pre; opacity: 1;" transform="translate(0,106.52)">0.80</text></g></g><g class="overaxes-above"><g class="xy2-x"/><g class="xy2-y"><g class="y2tick"><text text-anchor="end" x="79" y="3.5" transform="translate(0,189.63)" style="font-family: helvetica, verdana, arial, sans-serif; font-size: 10px; fill: rgb(42, 63, 95); fill-opacity: 1; white-space: pre; opacity: 1;">48%</text></g><g class="y2tick"><text text-anchor="end" x="79" y="3.5" style="font-family: helvetica, verdana, arial, sans-serif; font-size: 10px; fill: rgb(42, 63, 95); fill-opacity: 1; white-space: pre; opacity: 1;" transform="translate(0,170.61)">49%</text></g><g class="y2tick"><text text-anchor="end" x="79" y="3.5" style="font-family: helvetica, verdana, arial, sans-serif; font-size: 10px; fill: rgb(42, 63, 95); fill-opacity: 1; white-space: pre; opacity: 1;" transform="translate(0,151.59)">50%</text></g><g class="y2tick"><text text-anchor="end" x="79" y="3.5" style="font-family: helvetica, verdana, arial, sans-serif; font-size: 10px; fill: rgb(42, 63, 95); fill-opacity: 1; white-space: pre; opacity: 1;" transform="translate(0,132.57)">51%</text></g><g class="y2tick"><text text-anchor="end" x="79" y="3.5" style="font-family: helvetica, verdana, arial, sans-serif; font-size: 10px; fill: rgb(42, 63, 95); fill-opacity: 1; white-space: pre; opacity: 1;" transform="translate(0,113.53999999999999)">52%</text></g></g></g></g><g class="subplot x2y3"><g class="layer-subplot"><g class="shapelayer"/><g class="imagelayer"/></g><g class="gridlayer"><g class="x2"/><g class="y3"><path class="y3grid crisp" transform="translate(0,332.6933333333333)" d="M80,0h149.85" style="stroke: rgb(235, 240, 248); stroke-opacity: 1; stroke-width: 1px;"/><path class="y3grid crisp" transform="translate(0,297.5133333333333)" d="M80,0h149.85" style="stroke: rgb(235, 240, 248); stroke-opacity: 1; stroke-width: 1px;"/></g></g><g class="zerolinelayer"/><path class="xlines-below"/><path class="ylines-below"/><g class="overlines-below"/><g class="xaxislayer-below"/><g class="yaxislayer-below"/><g class="overaxes-below"/><g class="plot" transform="translate(80,263.3333333333333)" clip-path="url(#clip11031ex2y3plot)"><g class="scatterlayer mlayer"><g class="trace scatter tracec2f8fd" style="stroke-miterlimit: 2; opacity: 1;"><g class="fills"/><g class="errorbars"/><g class="lines"><path class="js-line" d="M0,88.67Q3.71,69.29 6.81,68.31C8.75,67.69 11.4,73.42 13.62,73.31C15.94,73.19 17.97,67.93 20.43,67.15C22.56,66.47 25.27,66.6 27.25,67.97C30.15,69.98 31.79,81.04 34.06,81.04C36.33,81.04 38.09,70.76 40.87,68.03C42.87,66.07 45.62,66.44 47.68,64.64C50.28,62.36 51.95,57.12 54.49,54.59C56.58,52.51 59.1,51.79 61.3,50.03C63.65,48.15 65.68,44.03 68.11,43.55C70.25,43.13 72.74,46.56 74.92,46.22C77.31,45.85 79.32,41.29 81.74,40.69C83.89,40.15 86.43,40.93 88.55,42.02C91.02,43.29 92.89,47.78 95.36,48.48C97.48,49.08 99.91,47.58 102.17,47.04C104.45,46.49 106.81,44.76 108.98,45.2C111.38,45.69 113.7,50.9 115.79,50.54C118.33,50.1 120.32,43.28 122.6,39.68C124.86,36.11 127.27,32.95 129.42,29.03C131.85,24.6 133.75,18.61 136.23,14.32C138.35,10.66 140.37,5.81 143.04,4.67Q145.08,3.8 149.85,5.7" style="vector-effect: non-scaling-stroke; fill: none; stroke: rgb(134, 138, 145); stroke-opacity: 1; stroke-width: 2px; opacity: 1; stroke-dasharray: 9px, 9px;"/></g><g class="points"/><g class="text"/></g><g class="trace scatter trace973e7f" style="stroke-miterlimit: 2; opacity: 1;"><g class="fills"/><g class="errorbars"/><g class="lines"><path class="js-line" d="M0,48.94Q4.54,44.93 6.81,42.93C9.08,40.93 11.22,37.35 13.62,36.93C15.78,36.56 18.16,39.66 20.43,39.65C22.71,39.64 25.29,36.03 27.25,36.83C30.26,38.06 31.7,52.8 34.06,52.88C36.25,52.96 38.64,44.06 40.87,39.47C43.18,34.72 44.94,28.34 47.68,24.86C49.7,22.3 52.43,19.04 54.49,19.44C57.1,19.95 58.78,31.23 61.3,31.58C63.4,31.87 65.61,25.98 68.11,24.75C70.22,23.71 72.85,25.02 74.92,23.87C77.52,22.42 79.15,16.99 81.74,15.44C83.81,14.2 86.28,14.61 88.55,14.15C90.82,13.69 93.17,13.59 95.36,12.67C97.73,11.67 100.16,7.63 102.17,8.17C104.93,8.91 106.32,21.38 108.98,21.91C111.02,22.32 113.35,16.7 115.79,16.01C117.93,15.4 120.6,15.72 122.6,17.11C125.42,19.07 127.33,29.28 129.42,29.1C131.96,28.88 132.98,11.54 136.23,9.91C138.16,8.94 141,10.52 143.04,12.02Q145.69,13.97 149.85,21.89" style="vector-effect: non-scaling-stroke; fill: none; stroke: rgb(31, 133, 255); stroke-opacity: 1; stroke-width: 2px; opacity: 1;"/></g><g class="points"/><g class="text"/></g></g></g><g class="overplot"/><path class="xlines-above crisp" d="M0,0" style="fill: none;"/><path class="ylines-above crisp" d="M0,0" style="fill: none;"/><g class="overlines-above"/><g class="xaxislayer-above"><g class="x2tick"><text text-anchor="middle" x="0" y="367.6666666666667" transform="translate(93.62,0)" style="font-family: helvetica, verdana, arial, sans-serif; font-size: 10px; fill: rgb(42, 63, 95); fill-opacity: 1; white-space: pre; opacity: 1;">2000</text></g><g class="x2tick"><text text-anchor="middle" x="0" y="367.6666666666667" style="font-family: helvetica, verdana, arial, sans-serif; font-size: 10px; fill: rgb(42, 63, 95); fill-opacity: 1; white-space: pre; opacity: 1;" transform="translate(127.68,0)">2005</text></g><g class="x2tick"><text text-anchor="middle" x="0" y="367.6666666666667" style="font-family: helvetica, verdana, arial, sans-serif; font-size: 10px; fill: rgb(42, 63, 95); fill-opacity: 1; white-space: pre; opacity: 1;" transform="translate(161.74,0)">2010</text></g><g class="x2tick"><text text-anchor="middle" x="0" y="367.6666666666667" style="font-family: helvetica, verdana, arial, sans-serif; font-size: 10px; fill: rgb(42, 63, 95); fill-opacity: 1; white-space: pre; opacity: 1;" transform="translate(195.79000000000002,0)">2015</text></g><g class="x2tick"><text text-anchor="middle" x="0" y="367.6666666666667" style="font-family: helvetica, verdana, arial, sans-serif; font-size: 10px; fill: rgb(42, 63, 95); fill-opacity: 1; white-space: pre; opacity: 1;" transform="translate(229.85,0)">2020</text></g></g><g class="yaxislayer-above"><g class="y3tick"><text text-anchor="end" x="79" y="3.5" transform="translate(0,332.6933333333333)" style="font-family: helvetica, verdana, arial, sans-serif; font-size: 10px; fill: rgb(42, 63, 95); fill-opacity: 1; white-space: pre; opacity: 1;">45%</text></g><g class="y3tick"><text text-anchor="end" x="79" y="3.5" style="font-family: helvetica, verdana, arial, sans-serif; font-size: 10px; fill: rgb(42, 63, 95); fill-opacity: 1; white-space: pre; opacity: 1;" transform="translate(0,297.5133333333333)">50%</text></g></g><g class="overaxes-above"/></g><g class="subplot x3y4"><g class="layer-subplot"><g class="shapelayer"/><g class="imagelayer"/></g><g class="gridlayer"><g class="x3"/><g class="y4"><path class="y4grid crisp" transform="translate(0,322.37333333333333)" d="M310.85,0h149.85" style="stroke: rgb(235, 240, 248); stroke-opacity: 1; stroke-width: 1px;"/><path class="y4grid crisp" transform="translate(0,288.06333333333333)" d="M310.85,0h149.85" style="stroke: rgb(235, 240, 248); stroke-opacity: 1; stroke-width: 1px;"/></g></g><g class="zerolinelayer"/><path class="xlines-below"/><path class="ylines-below"/><g class="overlines-below"/><g class="xaxislayer-below"/><g class="yaxislayer-below"/><g class="overaxes-below"/><g class="plot" transform="translate(310.85,263.3333333333333)" clip-path="url(#clip11031ex3y4plot)"><g class="scatterlayer mlayer"><g class="trace scatter trace23b979" style="stroke-miterlimit: 2; opacity: 1;"><g class="fills"/><g class="errorbars"/><g class="lines"><path class="js-line" d="M0,28.44Q4.77,30.51 6.81,32.6C9.47,35.32 11.44,44.42 13.62,44.32C16,44.21 17.85,33.66 20.43,29.68C22.5,26.48 25.07,24.72 27.25,21.82C29.64,18.64 31.37,12.25 34.06,11.28C36.09,10.55 38.95,11.57 40.87,13.43C44.14,16.59 44.86,32.29 47.68,32.83C49.68,33.22 52.49,24.68 54.49,25.06C57.3,25.6 59.07,37.71 61.3,44.25C63.61,51.03 65.17,64.35 68.11,65.03C70.08,65.48 72.72,60.56 74.92,58.01C77.28,55.27 79.33,51.61 81.74,49.04C83.9,46.74 86.51,45.76 88.55,43.14C91.2,39.74 93.14,29.56 95.36,29.61C97.68,29.66 99.53,44.24 102.17,44.68C104.22,45.02 106.91,40.39 108.98,37.4C111.55,33.68 113.36,23.81 115.79,23.63C117.93,23.47 120.1,30.82 122.6,33.38C124.71,35.54 127.53,35.36 129.42,38.39C133.44,44.83 132.94,75.56 136.23,76.17C138.15,76.53 140.27,66.82 143.04,64.98Q145.05,63.65 149.85,63.97" style="vector-effect: non-scaling-stroke; fill: none; stroke: rgb(134, 138, 145); stroke-opacity: 1; stroke-width: 2px; opacity: 1; stroke-dasharray: 9px, 9px;"/></g><g class="points"/><g class="text"/></g><g class="trace scatter trace2dd12f" style="stroke-miterlimit: 2; opacity: 1;"><g class="fills"/><g class="errorbars"/><g class="lines"><path class="js-line" d="M0,14.2Q4.78,16.64 6.81,18.95C9.51,22.03 10.89,31.36 13.62,32.08C15.64,32.61 18.51,30.23 20.43,27.66C23.73,23.24 24.9,4.72 27.25,4.67C29.45,4.63 31.55,18.76 34.06,24.66C36.16,29.61 38.22,37.35 40.87,37.88C42.92,38.29 45.25,33.31 47.68,32.17C49.83,31.16 52.56,29.83 54.49,30.92C57.71,32.73 58.94,43.21 61.3,48.9C63.49,54.16 65.98,64.01 68.11,63.9C70.56,63.77 71.57,45.11 74.92,43.35C76.84,42.34 79.44,45.04 81.74,45.33C83.99,45.61 86.63,46.53 88.55,45.12C91.9,42.66 92.55,25.98 95.36,25.45C97.36,25.07 99.87,30.87 102.17,33.46C104.41,35.98 106.83,38.01 108.98,40.78C111.4,43.89 113.09,50.36 115.79,51.35C117.82,52.09 120.46,48.8 122.6,49.28C125.04,49.83 127.46,52.5 129.42,55.51C132.41,60.09 132.99,74.4 136.23,75.75C138.16,76.56 141.08,71.69 143.04,72.43Q146.03,73.56 149.85,88.67" style="vector-effect: non-scaling-stroke; fill: none; stroke: rgb(31, 133, 255); stroke-opacity: 1; stroke-width: 2px; opacity: 1;"/></g><g class="points"/><g class="text"/></g></g></g><g class="overplot"/><path class="xlines-above crisp" d="M0,0" style="fill: none;"/><path class="ylines-above crisp" d="M0,0" style="fill: none;"/><g class="overlines-above"/><g class="xaxislayer-above"><g class="x3tick"><text text-anchor="middle" x="0" y="367.6666666666667" transform="translate(324.47,0)" style="font-family: helvetica, verdana, arial, sans-serif; font-size: 10px; fill: rgb(42, 63, 95); fill-opacity: 1; white-space: pre; opacity: 1;">2000</text></g><g class="x3tick"><text text-anchor="middle" x="0" y="367.6666666666667" style="font-family: helvetica, verdana, arial, sans-serif; font-size: 10px; fill: rgb(42, 63, 95); fill-opacity: 1; white-space: pre; opacity: 1;" transform="translate(358.53000000000003,0)">2005</text></g><g class="x3tick"><text text-anchor="middle" x="0" y="367.6666666666667" style="font-family: helvetica, verdana, arial, sans-serif; font-size: 10px; fill: rgb(42, 63, 95); fill-opacity: 1; white-space: pre; opacity: 1;" transform="translate(392.59000000000003,0)">2010</text></g><g class="x3tick"><text text-anchor="middle" x="0" y="367.6666666666667" style="font-family: helvetica, verdana, arial, sans-serif; font-size: 10px; fill: rgb(42, 63, 95); fill-opacity: 1; white-space: pre; opacity: 1;" transform="translate(426.64000000000004,0)">2015</text></g><g class="x3tick"><text text-anchor="middle" x="0" y="367.6666666666667" style="font-family: helvetica, verdana, arial, sans-serif; font-size: 10px; fill: rgb(42, 63, 95); fill-opacity: 1; white-space: pre; opacity: 1;" transform="translate(460.70000000000005,0)">2020</text></g></g><g class="yaxislayer-above"><g class="y4tick"><text text-anchor="end" x="309.85" y="3.5" transform="translate(0,322.37333333333333)" style="font-family: helvetica, verdana, arial, sans-serif; font-size: 10px; fill: rgb(42, 63, 95); fill-opacity: 1; white-space: pre; opacity: 1;">12%</text></g><g class="y4tick"><text text-anchor="end" x="309.85" y="3.5" style="font-family: helvetica, verdana, arial, sans-serif; font-size: 10px; fill: rgb(42, 63, 95); fill-opacity: 1; white-space: pre; opacity: 1;" transform="translate(0,288.06333333333333)">14%</text></g></g><g class="overaxes-above"/></g><g class="subplot x4y5"><g class="layer-subplot"><g class="shapelayer"/><g class="imagelayer"/></g><g class="gridlayer"><g class="x4"/><g class="y5"><path class="y5grid crisp" transform="translate(0,515.0966666666667)" d="M80,0h149.85" style="stroke: rgb(235, 240, 248); stroke-opacity: 1; stroke-width: 1px;"/><path class="y5grid crisp" transform="translate(0,475.3066666666667)" d="M80,0h149.85" style="stroke: rgb(235, 240, 248); stroke-opacity: 1; stroke-width: 1px;"/><path class="y5grid crisp" transform="translate(0,435.5166666666667)" d="M80,0h149.85" style="stroke: rgb(235, 240, 248); stroke-opacity: 1; stroke-width: 1px;"/></g></g><g class="zerolinelayer"/><path class="xlines-below"/><path class="ylines-below"/><g class="overlines-below"/><g class="xaxislayer-below"/><g class="yaxislayer-below"/><g class="overaxes-below"/><g class="plot" transform="translate(80,426.6666666666667)" clip-path="url(#clip11031ex4y5plot)"><g class="scatterlayer mlayer"><g class="trace scatter tracedf9fdd" style="stroke-miterlimit: 2; opacity: 1;"><g class="fills"/><g class="errorbars"/><g class="lines"><path class="js-line" d="M0,4.67Q3.37,27.19 6.81,32.73C8.72,35.8 11.6,38.87 13.62,38.42C16.34,37.82 17.65,27.27 20.43,23.95C22.44,21.55 25.34,18.4 27.25,19.1C30.7,20.36 30.93,44.7 34.06,45.42C36,45.87 38.45,37.76 40.87,37.46C43.02,37.19 45.62,40.03 47.68,42.27C50.29,45.12 52.2,50.07 54.49,53.9C56.75,57.68 58.85,61.9 61.3,65.12C63.43,67.92 66.03,72.64 68.11,72.34C70.67,71.97 72.64,63.44 74.92,59.01C77.19,54.61 79.37,45.95 81.74,45.85C83.93,45.75 86.2,56.47 88.55,56.58C90.75,56.68 93.19,47.67 95.36,47.82C97.76,47.98 99.71,56.17 102.17,59.55C104.3,62.47 106.91,64.02 108.98,67.12C111.56,70.99 113.43,81.35 115.79,81.44C117.98,81.53 120.14,69.86 122.6,69.61C124.73,69.39 127.08,74.93 129.42,77.3C131.63,79.54 133.78,82.83 136.23,83.48C138.36,84.04 141.08,83.54 143.04,81.95Q146.04,79.52 149.85,67.05" style="vector-effect: non-scaling-stroke; fill: none; stroke: rgb(134, 138, 145); stroke-opacity: 1; stroke-width: 2px; opacity: 1; stroke-dasharray: 9px, 9px;"/></g><g class="points"/><g class="text"/></g><g class="trace scatter trace688384" style="stroke-miterlimit: 2; opacity: 1;"><g class="fills"/><g class="errorbars"/><g class="lines"><path class="js-line" d="M0,5.82Q3.76,21.99 6.81,26.52C8.76,29.42 11.18,31.6 13.62,32.29C15.76,32.89 18.44,32.63 20.43,31.23C23.29,29.22 24.65,21.93 27.25,18.71C29.31,16.15 31.67,13.17 34.06,12.82C36.23,12.5 38.97,13.68 40.87,15.9C44.38,19.99 45.08,33.38 47.68,40.36C49.74,45.88 51.91,50.84 54.49,54.72C56.56,57.82 59.11,59.54 61.3,62.28C63.66,65.23 66.2,72.34 68.11,71.92C71.54,71.16 71.9,34.98 74.92,34.59C76.88,34.33 78.75,47.5 81.74,49.06C83.7,50.09 86.67,46.6 88.55,47.91C92.9,50.94 92.53,83.88 95.36,84.16C97.35,84.36 99.31,71.12 102.17,67.22C104.16,64.51 106.6,61.97 108.98,61.62C111.16,61.3 113.68,64.95 115.79,64.46C118.29,63.87 120.08,57.31 122.6,56.61C124.7,56.03 127.5,56.92 129.42,58.86C132.81,62.29 133.31,75.15 136.23,80.29C138.2,83.77 140.49,86.67 143.04,87.98Q145.12,89.05 149.85,88.67" style="vector-effect: non-scaling-stroke; fill: none; stroke: rgb(31, 133, 255); stroke-opacity: 1; stroke-width: 2px; opacity: 1;"/></g><g class="points"/><g class="text"/></g></g></g><g class="overplot"/><path class="xlines-above crisp" d="M0,0" style="fill: none;"/><path class="ylines-above crisp" d="M0,0" style="fill: none;"/><g class="overlines-above"/><g class="xaxislayer-above"><g class="x4tick"><text text-anchor="middle" x="0" y="531" transform="translate(93.62,0)" style="font-family: helvetica, verdana, arial, sans-serif; font-size: 10px; fill: rgb(42, 63, 95); fill-opacity: 1; white-space: pre; opacity: 1;">2000</text></g><g class="x4tick"><text text-anchor="middle" x="0" y="531" style="font-family: helvetica, verdana, arial, sans-serif; font-size: 10px; fill: rgb(42, 63, 95); fill-opacity: 1; white-space: pre; opacity: 1;" transform="translate(127.68,0)">2005</text></g><g class="x4tick"><text text-anchor="middle" x="0" y="531" style="font-family: helvetica, verdana, arial, sans-serif; font-size: 10px; fill: rgb(42, 63, 95); fill-opacity: 1; white-space: pre; opacity: 1;" transform="translate(161.74,0)">2010</text></g><g class="x4tick"><text text-anchor="middle" x="0" y="531" style="font-family: helvetica, verdana, arial, sans-serif; font-size: 10px; fill: rgb(42, 63, 95); fill-opacity: 1; white-space: pre; opacity: 1;" transform="translate(195.79000000000002,0)">2015</text></g><g class="x4tick"><text text-anchor="middle" x="0" y="531" style="font-family: helvetica, verdana, arial, sans-serif; font-size: 10px; fill: rgb(42, 63, 95); fill-opacity: 1; white-space: pre; opacity: 1;" transform="translate(229.85,0)">2020</text></g></g><g class="yaxislayer-above"><g class="y5tick"><text text-anchor="end" x="79" y="3.5" transform="translate(0,515.0966666666667)" style="font-family: helvetica, verdana, arial, sans-serif; font-size: 10px; fill: rgb(42, 63, 95); fill-opacity: 1; white-space: pre; opacity: 1;">20%</text></g><g class="y5tick"><text text-anchor="end" x="79" y="3.5" style="font-family: helvetica, verdana, arial, sans-serif; font-size: 10px; fill: rgb(42, 63, 95); fill-opacity: 1; white-space: pre; opacity: 1;" transform="translate(0,475.3066666666667)">25%</text></g><g class="y5tick"><text text-anchor="end" x="79" y="3.5" style="font-family: helvetica, verdana, arial, sans-serif; font-size: 10px; fill: rgb(42, 63, 95); fill-opacity: 1; white-space: pre; opacity: 1;" transform="translate(0,435.5166666666667)">30%</text></g></g><g class="overaxes-above"/></g><g class="subplot x5y6"><g class="layer-subplot"><g class="shapelayer"/><g class="imagelayer"/></g><g class="gridlayer"><g class="x5"/><g class="y6"><path class="y6grid crisp" transform="translate(0,499.7166666666667)" d="M310.85,0h149.85" style="stroke: rgb(235, 240, 248); stroke-opacity: 1; stroke-width: 1px;"/><path class="y6grid crisp" transform="translate(0,472.0766666666667)" d="M310.85,0h149.85" style="stroke: rgb(235, 240, 248); stroke-opacity: 1; stroke-width: 1px;"/><path class="y6grid crisp" transform="translate(0,444.4266666666667)" d="M310.85,0h149.85" style="stroke: rgb(235, 240, 248); stroke-opacity: 1; stroke-width: 1px;"/></g></g><g class="zerolinelayer"/><path class="xlines-below"/><path class="ylines-below"/><g class="overlines-below"/><g class="xaxislayer-below"/><g class="yaxislayer-below"/><g class="overaxes-below"/><g class="plot" transform="translate(310.85,426.6666666666667)" clip-path="url(#clip11031ex5y6plot)"><g class="scatterlayer mlayer"><g class="trace scatter traceca0b05" style="stroke-miterlimit: 2; opacity: 1;"><g class="fills"/><g class="errorbars"/><g class="lines"><path class="js-line" d="M0,54.98Q3.97,67.06 6.81,70.55C8.8,73 11.23,74.39 13.62,75.38C15.79,76.28 18.38,77.36 20.43,76.54C23.07,75.48 25.16,70.96 27.25,67.35C29.8,62.94 31.58,56.27 34.06,51.67C36.18,47.75 38.35,41.71 40.87,41.29C42.97,40.94 45.66,44.09 47.68,46.61C50.42,50.04 51.54,58.55 54.49,61.05C56.46,62.72 59.27,61.47 61.3,62.98C64.01,64.99 66.05,73.87 68.11,73.64C70.72,73.35 72.67,54.59 74.92,54.6C77.21,54.61 79.28,68.42 81.74,74.42C83.87,79.63 85.97,88.3 88.55,88.67C90.62,88.97 92.92,83.04 95.36,81.08C97.5,79.37 100.02,78.94 102.17,77.25C104.6,75.34 106.76,69.84 108.98,69.93C111.3,70.02 113.36,78.19 115.79,78.51C117.93,78.79 120.58,72.95 122.6,73.44C125.33,74.1 126.46,85.63 129.42,87.35C131.39,88.49 134.26,88.22 136.23,86.93C139.15,85.02 140.66,73.73 143.04,73.61Q145.22,73.5 149.85,84.11" style="vector-effect: non-scaling-stroke; fill: none; stroke: rgb(134, 138, 145); stroke-opacity: 1; stroke-width: 2px; opacity: 1; stroke-dasharray: 9px, 9px;"/></g><g class="points"/><g class="text"/></g><g class="trace scatter tracecc029d" style="stroke-miterlimit: 2; opacity: 1;"><g class="fills"/><g class="errorbars"/><g class="lines"><path class="js-line" d="M0,6.04Q4.58,19.84 6.81,19.8C9.13,19.76 11.2,4.82 13.62,4.67C15.77,4.54 17.66,14.03 20.43,15.85C22.44,17.17 25.31,15.28 27.25,16.79C30.39,19.23 31.09,32.46 34.06,33.48C36.02,34.15 38.91,28.87 40.87,29.55C43.85,30.58 45.01,46 47.68,46.42C49.72,46.74 52.51,37.89 54.49,38.28C57.36,38.84 58.75,53.24 61.3,59.34C63.38,64.32 66.08,72.63 68.11,72.42C70.79,72.14 71.32,51.46 74.92,47.79C76.82,45.85 79.82,44.76 81.74,45.77C85.12,47.55 85.14,63.74 88.55,66.85C90.46,68.6 93.33,66.99 95.36,68.39C98.05,70.25 99.84,78.55 102.17,78.63C104.39,78.71 106.55,70.08 108.98,69.79C111.13,69.53 113.66,75.56 115.79,75.27C118.25,74.94 120.35,65.77 122.6,65.8C124.89,65.83 126.86,73.34 129.42,75.8C131.5,77.8 134.22,80.64 136.23,80.07C139,79.29 140.68,66.49 143.04,66.39Q145.23,66.3 149.85,77.65" style="vector-effect: non-scaling-stroke; fill: none; stroke: rgb(31, 133, 255); stroke-opacity: 1; stroke-width: 2px; opacity: 1;"/></g><g class="points"/><g class="text"/></g></g></g><g class="overplot"/><path class="xlines-above crisp" d="M0,0" style="fill: none;"/><path class="ylines-above crisp" d="M0,0" style="fill: none;"/><g class="overlines-above"/><g class="xaxislayer-above"><g class="x5tick"><text text-anchor="middle" x="0" y="531" transform="translate(324.47,0)" style="font-family: helvetica, verdana, arial, sans-serif; font-size: 10px; fill: rgb(42, 63, 95); fill-opacity: 1; white-space: pre; opacity: 1;">2000</text></g><g class="x5tick"><text text-anchor="middle" x="0" y="531" style="font-family: helvetica, verdana, arial, sans-serif; font-size: 10px; fill: rgb(42, 63, 95); fill-opacity: 1; white-space: pre; opacity: 1;" transform="translate(358.53000000000003,0)">2005</text></g><g class="x5tick"><text text-anchor="middle" x="0" y="531" style="font-family: helvetica, verdana, arial, sans-serif; font-size: 10px; fill: rgb(42, 63, 95); fill-opacity: 1; white-space: pre; opacity: 1;" transform="translate(392.59000000000003,0)">2010</text></g><g class="x5tick"><text text-anchor="middle" x="0" y="531" style="font-family: helvetica, verdana, arial, sans-serif; font-size: 10px; fill: rgb(42, 63, 95); fill-opacity: 1; white-space: pre; opacity: 1;" transform="translate(426.64000000000004,0)">2015</text></g><g class="x5tick"><text text-anchor="middle" x="0" y="531" style="font-family: helvetica, verdana, arial, sans-serif; font-size: 10px; fill: rgb(42, 63, 95); fill-opacity: 1; white-space: pre; opacity: 1;" transform="translate(460.70000000000005,0)">2020</text></g></g><g class="yaxislayer-above"><g class="y6tick"><text text-anchor="end" x="309.85" y="3.5" transform="translate(0,499.7166666666667)" style="font-family: helvetica, verdana, arial, sans-serif; font-size: 10px; fill: rgb(42, 63, 95); fill-opacity: 1; white-space: pre; opacity: 1;">25%</text></g><g class="y6tick"><text text-anchor="end" x="309.85" y="3.5" style="font-family: helvetica, verdana, arial, sans-serif; font-size: 10px; fill: rgb(42, 63, 95); fill-opacity: 1; white-space: pre; opacity: 1;" transform="translate(0,472.0766666666667)">30%</text></g><g class="y6tick"><text text-anchor="end" x="309.85" y="3.5" style="font-family: helvetica, verdana, arial, sans-serif; font-size: 10px; fill: rgb(42, 63, 95); fill-opacity: 1; white-space: pre; opacity: 1;" transform="translate(0,444.4266666666667)">35%</text></g></g><g class="overaxes-above"/></g><g class="subplot xy2"/></g><g class="polarlayer"/><g class="ternarylayer"/><g class="geolayer"/><g class="funnelarealayer"/><g class="pielayer"/><g class="iciclelayer"/><g class="treemaplayer"/><g class="sunburstlayer"/><g class="glimages"/><defs id="topdefs-11031e"><g class="clips"/><clipPath id="legend11031e"><rect width="95" height="115" x="0" y="0"/></clipPath></defs><g class="layer-above"><g class="imagelayer"/><g class="shapelayer"/></g><g class="infolayer"><g class="legend" pointer-events="all" transform="translate(493.1,100)"><rect class="bg" shape-rendering="crispEdges" width="95" height="115" x="0" y="0" style="stroke: rgb(68, 68, 68); stroke-opacity: 1; fill: rgb(255, 255, 255); fill-opacity: 1; stroke-width: 0px;"/><g class="scrollbox" transform="" clip-path="url(#legend11031e)"><g class="groups" transform=""><g class="traces" transform="translate(0,14.5)" style="opacity: 1;"><text class="legendtext" text-anchor="start" x="5" y="4.29" style="font-family: helvetica, verdana, arial, sans-serif; font-size: 11px; fill: rgb(42, 63, 95); fill-opacity: 1; white-space: pre;"><tspan style="font-weight:bold">Index</tspan> (Left)</text><g class="layers"><g class="legendfill"/><g class="legendlines"/><g class="legendsymbols"><g class="legendpoints"/></g></g><rect class="legendtoggle" x="0" y="-9.5" width="89.515625" height="19" style="fill: rgb(0, 0, 0); fill-opacity: 0;"/></g><g class="traces" transform="translate(0,33.5)" style="opacity: 1;"><text class="legendtext" text-anchor="start" x="40" y="3.9" style="font-family: helvetica, verdana, arial, sans-serif; font-size: 10px; fill: rgb(42, 63, 95); fill-opacity: 1; white-space: pre;">Opponent</text><g class="layers" style="opacity: 1;"><g class="legendfill"/><g class="legendlines"><path class="js-line" d="M5,0h30" style="fill: none; stroke: rgb(134, 138, 145); stroke-opacity: 1; stroke-dasharray: 9px, 9px; stroke-width: 2px;"/></g><g class="legendsymbols"><g class="legendpoints"/></g></g><rect class="legendtoggle" x="0" y="-9.5" width="89.515625" height="19" style="fill: rgb(0, 0, 0); fill-opacity: 0;"/></g><g class="traces" transform="translate(0,52.5)" style="opacity: 1;"><text class="legendtext" text-anchor="start" x="40" y="3.9" style="font-family: helvetica, verdana, arial, sans-serif; font-size: 10px; fill: rgb(42, 63, 95); fill-opacity: 1; white-space: pre;">SAS</text><g class="layers" style="opacity: 1;"><g class="legendfill"/><g class="legendlines"><path class="js-line" d="M5,0h30" style="fill: none; stroke: rgb(31, 133, 255); stroke-opacity: 1; stroke-width: 2.5px;"/></g><g class="legendsymbols"><g class="legendpoints"/></g></g><rect class="legendtoggle" x="0" y="-9.5" width="89.515625" height="19" style="fill: rgb(0, 0, 0); fill-opacity: 0;"/></g></g><g class="groups" transform="translate(0,10)"><g class="traces" transform="translate(0,71.5)" style="opacity: 1;"><text class="legendtext" text-anchor="start" x="5" y="4.29" style="font-family: helvetica, verdana, arial, sans-serif; font-size: 11px; fill: rgb(42, 63, 95); fill-opacity: 1; white-space: pre;"><tspan style="font-weight:bold">Win%</tspan> (Right)</text><g class="layers"><g class="legendfill"/><g class="legendlines"/><g class="legendsymbols"><g class="legendpoints"/></g></g><rect class="legendtoggle" x="0" y="-9.5" width="89.515625" height="19" style="fill: rgb(0, 0, 0); fill-opacity: 0;"/></g><g class="traces" transform="translate(0,90.5)" style="opacity: 1;"><text class="legendtext" text-anchor="start" x="40" y="3.9" style="font-family: helvetica, verdana, arial, sans-serif; font-size: 10px; fill: rgb(42, 63, 95); fill-opacity: 1; white-space: pre;">SAS</text><g class="layers" style="opacity: 1;"><g class="legendfill"/><g class="legendlines"/><g class="legendsymbols"><g class="legendpoints"><path class="legendundefined" d="M6,6H-6V-6H6Z" transform="translate(20,0)" style="stroke-width: 0.5px; fill: rgb(189, 219, 255); fill-opacity: 1; stroke: rgb(255, 255, 255); stroke-opacity: 1;"/></g></g></g><rect class="legendtoggle" x="0" y="-9.5" width="89.515625" height="19" style="fill: rgb(0, 0, 0); fill-opacity: 0;"/></g></g></g><rect class="scrollbar" rx="20" ry="3" width="0" height="0" x="0" y="0" style="fill: rgb(128, 139, 164); fill-opacity: 1;"/></g><g class="g-gtitle"><text class="gtitle" x="30" y="50" text-anchor="start" dy="0em" style="font-family: helvetica, verdana, arial, sans-serif; font-size: 20px; fill: rgb(42, 63, 95); opacity: 1; font-weight: normal; white-space: pre;"><tspan class="line" dy="0em" x="30" y="50"><tspan style="font-weight:bold">NBA Four Factors Index &amp; Components</tspan></tspan><tspan class="line" dy="1.3em" x="30" y="50">San Antonio Spurs</tspan></text></g><g class="g-xtitle"/><g class="g-x2title"/><g class="g-x3title"/><g class="g-x4title"/><g class="g-x5title"/><g class="g-ytitle"/><g class="g-y2title"/><g class="g-y3title"/><g class="g-y4title"/><g class="g-y5title"/><g class="g-y6title"/><g class="annotation" data-index="0" style="opacity: 1;"><g class="annotation-text-g" transform="rotate(0,270.35,90)"><g class="cursor-pointer" transform="translate(204,80)"><rect class="bg" x="0.5" y="0.5" width="131" height="19" style="stroke-width: 1px; stroke: rgb(0, 0, 0); stroke-opacity: 0; fill: rgb(0, 0, 0); fill-opacity: 0;"/><text class="annotation-text" text-anchor="middle" x="66.171875" y="15" style="font-family: helvetica, verdana, arial, sans-serif; font-size: 14px; fill: rgb(42, 63, 95); fill-opacity: 1; white-space: pre;">Four Factors Index</text></g></g></g><g class="annotation" data-index="1" style="opacity: 1;"><g class="annotation-text-g" transform="rotate(0,154.925,253.33333333333331)"><g class="cursor-pointer" transform="translate(132,243)"><rect class="bg" x="0.5" y="0.5" width="44" height="19" style="stroke-width: 1px; stroke: rgb(0, 0, 0); stroke-opacity: 0; fill: rgb(0, 0, 0); fill-opacity: 0;"/><text class="annotation-text" text-anchor="middle" x="22.421875" y="15" style="font-family: helvetica, verdana, arial, sans-serif; font-size: 14px; fill: rgb(42, 63, 95); fill-opacity: 1; white-space: pre;">eFG%</text></g></g></g><g class="annotation" data-index="2" style="opacity: 1;"><g class="annotation-text-g" transform="rotate(0,385.77500000000003,253.33333333333331)"><g class="cursor-pointer" transform="translate(362,243)"><rect class="bg" x="0.5" y="0.5" width="46" height="19" style="stroke-width: 1px; stroke: rgb(0, 0, 0); stroke-opacity: 0; fill: rgb(0, 0, 0); fill-opacity: 0;"/><text class="annotation-text" text-anchor="middle" x="24.109375" y="15" style="font-family: helvetica, verdana, arial, sans-serif; font-size: 14px; fill: rgb(42, 63, 95); fill-opacity: 1; white-space: pre;">TOV%</text></g></g></g><g class="annotation" data-index="3" style="opacity: 1;"><g class="annotation-text-g" transform="rotate(0,154.925,416.6666666666667)"><g class="cursor-pointer" transform="translate(126,407)"><rect class="bg" x="0.5" y="0.5" width="56" height="19" style="stroke-width: 1px; stroke: rgb(0, 0, 0); stroke-opacity: 0; fill: rgb(0, 0, 0); fill-opacity: 0;"/><text class="annotation-text" text-anchor="middle" x="28.25" y="15" style="font-family: helvetica, verdana, arial, sans-serif; font-size: 14px; fill: rgb(42, 63, 95); fill-opacity: 1; white-space: pre;">OREB%</text></g></g></g><g class="annotation" data-index="4" style="opacity: 1;"><g class="annotation-text-g" transform="rotate(0,385.77500000000003,416.6666666666667)"><g class="cursor-pointer" transform="translate(353,407)"><rect class="bg" x="0.5" y="0.5" width="64" height="19" style="stroke-width: 1px; stroke: rgb(0, 0, 0); stroke-opacity: 0; fill: rgb(0, 0, 0); fill-opacity: 0;"/><text class="annotation-text" text-anchor="middle" x="32.703125" y="15" style="font-family: helvetica, verdana, arial, sans-serif; font-size: 14px; fill: rgb(42, 63, 95); fill-opacity: 1; white-space: pre;">FTA Rate</text></g></g></g></g></svg>